<?xml version="1.0" encoding="UTF-8" standalone="no"?>
<svg
   xmlns:dc="http://purl.org/dc/elements/1.1/"
   xmlns:cc="http://creativecommons.org/ns#"
   xmlns:rdf="http://www.w3.org/1999/02/22-rdf-syntax-ns#"
   xmlns:svg="http://www.w3.org/2000/svg"
   xmlns="http://www.w3.org/2000/svg"
   viewBox="0 0 627.92133 573.26135"
   height="573.26135"
   width="627.92133"
   xml:space="preserve"
   id="svg2"
   version="1.1"><metadata
     id="metadata8"><rdf:RDF><cc:Work
         rdf:about=""><dc:format>image/svg+xml</dc:format><dc:type
           rdf:resource="http://purl.org/dc/dcmitype/StillImage" /></cc:Work></rdf:RDF></metadata><defs
     id="defs6"><clipPath
       id="clipPath18"
       clipPathUnits="userSpaceOnUse"><path
         id="path16"
         d="M 0,429.946 H 470.941 V 0 H 0 Z" /></clipPath></defs><g
     transform="matrix(1.3333333,0,0,-1.3333333,0,573.26133)"
     id="g10"><g
       id="g12"><g
         clip-path="url(#clipPath18)"
         id="g14"><g
           transform="translate(260.9678,428.9463)"
           id="g20"><path
             id="path22"
             style="fill:#c3c3c5;fill-opacity:1;fill-rule:evenodd;stroke:none"
             d="m 0,0 c -0.001,-0.333 -0.001,-0.667 -0.002,-1 -5.267,-2.347 -10.552,-2.196 -15.85,-0.112 -0.049,0.37 -0.098,0.741 -0.147,1.112 z" /></g><g
           transform="translate(324.9463,33.2178)"
           id="g24"><path
             id="path26"
             style="fill:#1f2223;fill-opacity:1;fill-rule:evenodd;stroke:none"
             d="m 0,0 c -8.917,-2.271 -17.828,-4.568 -26.754,-6.807 -20.037,-5.024 -39.434,-12.516 -59.987,-15.547 -2.083,-0.508 -3.403,0.954 -4.874,1.944 -2.159,1.453 -4.564,2.329 -7.085,1.953 -12.262,-1.829 -16.582,6.891 -18.589,17.438 -0.556,2.919 -0.348,6.004 -0.039,8.979 0.521,5 -0.963,9.269 -4.4,12.785 -3.322,3.399 -5.768,7.323 -7.629,11.63 -1.812,4.193 -4.824,6.995 -8.929,8.974 -8.964,4.32 -17.401,9.315 -21.358,19.254 -0.43,1.08 -1.224,2.079 -2.237,2.641 -5.141,2.856 -8.862,6.864 -10.992,12.425 -0.772,2.014 -2.463,3.17 -4.839,2.213 -2.732,-1.101 -5.267,-0.323 -7.695,0.889 -7.262,3.628 -14.553,6.895 -19.235,14.397 -2.739,4.391 -7.224,7.847 -12.736,9.088 -4.088,0.921 -6.135,3.586 -6.941,7.572 -1.451,7.173 -1.158,14.569 -2.872,21.707 -0.738,12.141 -0.415,24.29 -0.212,36.43 0.081,4.82 2.108,6.133 6.82,5.376 2.16,-0.346 4.153,-1.168 6.13,-2.066 10.602,-4.814 21.302,-9.42 31.276,-15.513 2.394,-1.463 4.907,-2.821 7.726,-3.394 4.892,0.282 9.642,-0.851 14.452,-1.398 11.357,-0.583 22.58,-2.683 34.106,-0.804 19.67,3.208 39.189,7.365 59.029,9.55 5.775,0.637 11.364,2.451 17.143,3.195 4.122,0.531 6.185,3.447 7.851,6.893 1.414,2.925 3.104,5.676 7.164,4.657 1.878,-1.031 2.2,-2.783 2.185,-4.693 0.206,-2.741 0.375,-5.484 0.061,-8.228 -1.059,-15.96 -1.034,-31.948 -0.712,-47.917 0.674,-33.286 2.092,-66.557 2.042,-99.859 -0.007,-4.327 -0.128,-9.292 2.299,-12.611 2.864,-3.915 7.54,0.268 11.469,-0.168 4.231,-0.468 8.093,1.944 12.231,2.149 C -3.746,3.252 -0.197,4.59 0,0" /></g><g
           transform="translate(2.8599,300.7163)"
           id="g28"><path
             id="path30"
             style="fill:#8f8476;fill-opacity:1;fill-rule:evenodd;stroke:none"
             d="m 0,0 c -0.27,24.166 -0.547,48.333 -0.769,72.499 -0.004,0.555 0.624,1.116 0.957,1.675 3.601,1.32 5.295,-1.315 7.224,-3.47 C 8.842,68.123 10.911,66.39 13.75,65.41 28.997,60.148 43.47,52.914 58.594,47.417 70.303,43.162 81.375,37.218 93.562,34.266 94.21,34.109 94.938,34 95.433,33.599 c 9.973,-8.051 22.946,-8.221 34.181,-12.984 6.257,-2.653 12.359,-5.688 18.916,-7.7 4.646,-1.427 7.128,-4.763 7.22,-10.133 0.078,-4.609 0.997,-9.222 0.808,-13.886 0.015,-2.124 -0.042,-4.247 0.058,-6.369 -0.018,-18.215 -2.068,-36.203 -6.09,-53.966 -0.404,-1.785 -0.775,-3.61 -1.762,-5.184 -1.042,-1.664 -2.486,-2.965 -4.552,-2.01 -8.303,3.839 -17.691,4.791 -25.592,9.718 -2.008,1.252 -3.91,2.517 -5.259,4.499 -0.749,1.1 -1.397,2.574 -2.64,2.923 -5.307,1.491 -7.72,5.893 -10.798,9.824 -2.196,2.804 -4.633,5.211 -4.364,9.124 0.081,1.181 -0.632,1.833 -1.908,1.56 -1.344,-0.978 -1.989,-2.617 -3.377,-3.542 -5.673,-2.09 -6.863,-1.424 -7.597,4.501 -0.182,1.474 -0.781,2.513 -1.974,3.251 -4.813,2.976 -9.592,6.054 -15.437,6.606 -2.961,0.279 -4.922,2.282 -7.319,3.669 -4.667,2.703 -8.832,5.428 -11.101,10.552 -0.553,1.249 -2.227,1.311 -3.611,0.944 -5.799,-1.542 -10.857,0.668 -15.59,3.483 C 21.349,-7.777 15.968,-2.752 10.272,1.823 9.501,2.441 8.912,3.288 8.076,3.845 6.406,4.957 4.276,6.27 2.71,6.199 0.106,6.08 2.292,3.003 1.191,1.523 0.806,1.004 0.614,0.345 0,0" /></g><g
           transform="translate(42.9302,81.9478)"
           id="g32"><path
             id="path34"
             style="fill:#2a292a;fill-opacity:1;fill-rule:evenodd;stroke:none"
             d="m 0,0 c -10.965,7.767 -21.913,15.558 -32.906,23.284 -2.88,2.025 -2.999,5.107 -3.074,8.012 -1.19,46.396 -2.198,92.798 -3.525,139.19 -0.17,5.916 4.154,9.55 5.495,14.574 4.357,2.464 7.502,-0.629 10.83,-2.478 10.509,-5.837 19.616,-14.048 31.17,-18.174 2.675,-0.955 5.008,-2.303 7.987,-1.395 1.266,0.386 2.643,-0.007 3.455,-1.333 0.658,-2.982 -2.11,-4.288 -3.133,-6.45 -2.141,-2.884 1.075,-5.699 0.128,-8.568 -1.444,-6.048 -0.28,-12.211 -0.849,-18.297 1.231,-14.549 0.389,-29.168 1.635,-43.708 0.227,-0.889 0.352,-1.793 0.332,-2.711 C 17.504,78.07 17.45,74.192 17.602,70.316 17.601,61.866 18.325,53.393 16.9,44.98 16.566,43.009 16.353,40.905 15.054,39.358 11.127,34.681 10.493,29.184 10.724,23.426 10.953,17.753 9.941,12.532 5.721,8.311 4.396,6.986 4.077,5.1 3.534,3.352 2.999,1.625 2.511,-0.295 0,0" /></g><g
           transform="translate(324.9463,33.2178)"
           id="g36"><path
             id="path38"
             style="fill:#293744;fill-opacity:1;fill-rule:evenodd;stroke:none"
             d="m 0,0 c -0.591,2.355 -2.596,1.992 -4.068,1.717 -8.149,-1.527 -16.311,-3.042 -24.352,-5.03 -2.296,-0.568 -3.143,-0.259 -3.469,1.777 -0.757,4.728 -1.915,9.464 -2.007,14.215 -0.81,41.649 -1.502,83.302 -2.024,124.956 -0.101,8.1 0.688,16.211 1.066,24.317 4.667,0.839 7.299,3.974 9.102,8.055 1.1,-0.049 1.9,-0.689 2.437,-1.518 3.524,-5.444 8.242,-5.124 13.948,-3.916 10.272,2.176 20.595,4.405 31.17,4.85 3.451,-1.935 4.121,-5.236 3.586,-8.625 -2.029,-12.846 -2.133,-25.819 -2.879,-38.75 -0.097,-1.661 -0.561,-3.287 -0.681,-4.94 -0.291,-3.992 -2.567,-5.918 -6.347,-6.426 -9.409,-1.264 -18.549,-3.896 -27.891,-5.509 -5.791,-1 -7.056,-0.117 -7.81,5.731 -0.17,1.32 -0.55,2.607 -0.615,3.94 -0.117,2.381 0.793,3.864 3.399,3.815 3.789,-3.778 8.397,-1.966 12.402,-1.124 5.783,1.217 11.585,2.437 17.351,3.774 1.627,0.377 3.289,0.829 3.101,3.084 0.776,3.761 -1.75,3.282 -3.89,2.872 -7.015,-1.347 -14.023,-2.738 -21.018,-4.193 -1.301,-0.271 -2.578,-0.656 -3.885,-0.907 -2.183,-0.419 -4.583,-0.786 -5.851,1.455 -1.624,2.869 -3.17,6.055 -1.945,9.429 0.746,2.056 2.586,3.03 4.858,1.623 1.355,-1.633 3.188,-1.618 5.007,-1.297 8.276,1.462 16.499,3.206 24.705,5.005 1.663,0.365 4.967,0.199 3.33,3.82 -2.011,2.781 -4.817,1.863 -7.329,1.367 -7.994,-1.578 -16.088,-2.664 -23.979,-4.771 -2.098,-0.56 -4.224,-1.115 -5.929,1.06 -0.535,0.682 -0.258,2.292 -1.597,1.947 -0.529,-0.136 -0.444,-1.501 -0.599,-2.315 -0.535,-2.79 -0.717,-5.61 -0.683,-8.446 0.224,-18.331 -2.191,-36.492 -3.55,-54.721 -0.099,-1.325 -0.335,-2.637 -0.298,-3.976 0.082,-2.991 1.234,-4.471 4.592,-4.367 8.03,0.25 15.749,2.155 23.525,3.829 0.324,0.07 0.578,-0.081 0.81,-0.285 -0.345,0.512 -0.857,0.388 -1.304,0.272 -4.013,-1.038 -8.084,-1.81 -12.142,-2.637 -2.635,-0.537 -5.811,-1.327 -6.688,2.173 -0.984,3.927 2.6,4.607 5.253,5.186 7.16,1.563 14.18,3.636 21.276,5.431 3.227,0.816 6.476,1.566 9.567,2.829 3.763,1.537 7.404,2.995 11.253,-0.073 1.933,-1.54 3.012,0.188 3.628,1.851 1.13,3.05 0.902,6.216 0.611,9.379 -1.478,16.111 -0.627,32.253 -0.491,48.38 0.023,2.676 0.014,5.754 2.72,7.662 2.985,-1.725 2.397,-4.634 1.923,-7.107 -1.602,-8.354 0.67,-16.589 0.441,-24.885 -0.013,-0.477 -0.03,-0.977 0.263,-1.407 0.516,0.507 0.57,1.197 0.65,1.841 0.746,5.938 1.681,11.858 1.672,17.87 -0.013,8.652 -0.026,17.305 0.012,25.957 0.01,2.329 -0.098,4.72 0.876,6.882 0.586,1.301 0.801,3.644 3.343,2.243 1.548,-2.406 1.266,-5.127 1.219,-7.756 -0.332,-18.746 0.999,-37.524 -1.71,-56.232 -0.92,-6.36 -0.272,-12.907 0.277,-19.391 C 44.954,82.745 43.419,75.435 44.491,68.16 44.455,54.67 42.871,41.191 44.158,27.694 44.532,23.756 43.027,20.69 40.142,17.991 35.942,14.062 32.988,8.695 27.007,6.871 18.005,4.581 9.003,2.29 0,0" /></g><g
           transform="translate(466.9873,243.998)"
           id="g40"><path
             id="path42"
             style="fill:#1d201f;fill-opacity:1;fill-rule:evenodd;stroke:none"
             d="m 0,0 c 1.998,-1.475 2.124,-3.62 2.056,-5.817 -1.079,-34.728 -2.165,-69.457 -3.25,-104.185 -0.848,-1.141 -1.806,-2.148 -3.194,-2.636 -4.05,-1.48 -8.205,-1.111 -12.333,-0.557 -5.833,0.782 -11.577,1.046 -17.209,-1.21 -3.352,-1.343 -6.557,-0.7 -9.442,1.419 -4.611,3.384 -9.252,3.144 -13.903,0.147 -2.137,-1.377 -4.415,-2.279 -6.947,-2.598 -10.032,-1.264 -15.586,3.879 -15.046,14.028 0.19,3.551 1.91,5.979 5.528,6.74 2.766,0.582 5.566,1.011 8.226,2.032 1.521,0.585 2.551,1.471 2.573,3.258 0.022,1.894 -0.768,3.137 -2.554,3.834 -1.726,0.672 -3.519,0.964 -5.326,1.268 -4.921,0.829 -7.31,2.868 -7.54,7.772 -0.547,11.632 -0.756,23.301 0.097,34.918 0.456,6.217 3.846,10.812 9.962,13.179 5.134,1.987 10.375,3.408 15.79,4.389 12.421,2.249 24.414,6.49 37.015,7.955 6.291,0.731 11.163,2.989 11.497,10.58 0.095,2.166 0.734,5.083 4,5.484" /></g><g
           transform="translate(99.0098,163.9487)"
           id="g44"><path
             id="path46"
             style="fill:#413d39;fill-opacity:1;fill-rule:evenodd;stroke:none"
             d="m 0,0 c 1,-6.982 1.931,-13.976 3.033,-20.943 0.53,-3.35 2.004,-5.718 6.005,-6.14 6.074,-0.643 10.809,-4.992 13.447,-9.423 5.077,-8.526 13.196,-14.071 21.276,-14.729 15.699,-1.277 18.313,-14.975 26.184,-23.374 5.544,-5.914 12.611,-8.979 18.475,-13.848 10.97,-9.108 20.393,-19.894 21.4,-35.138 0.397,-6.002 0.519,-11.78 3.179,-17.389 2.218,-4.677 5.802,-7.441 10.509,-6.772 6.441,0.916 11.292,-1.102 15.687,-5.329 -13.327,-3.256 -26.602,-6.759 -40.016,-9.608 -3.744,-0.795 -7.9,0.346 -11.866,0.599 -4.062,-1.226 -4.783,1.852 -4.71,4.391 0.249,8.713 -2.499,17.289 -1.052,26.019 -0.532,0.9 -1.16,1.731 -1.796,2.557 -3.012,3.252 -6.572,4.776 -11.129,4.21 -3.518,-0.437 -6.855,1.045 -10.233,1.842 -2.627,0.619 -3.283,2.826 -4.043,5.155 -2.119,6.49 -0.169,12.85 0.299,19.245 0.549,7.5 -1.799,10.792 -9.331,11.795 -7.234,0.963 -14.447,1.461 -21.765,-0.117 -4.591,-0.989 -9.604,-2.032 -13.664,1.979 -7.642,6.601 -8.157,16.049 -9.24,24.92 -1.422,11.663 -1.222,23.478 -1.151,35.244 0.023,3.81 0.401,7.652 -0.847,11.374 C -1.162,-8.961 -3.201,-4.215 0,0" /></g><g
           transform="translate(462.9336,132.9736)"
           id="g48"><path
             id="path50"
             style="fill:#373332;fill-opacity:1;fill-rule:evenodd;stroke:none"
             d="M 0,0 C 0.954,0.341 1.906,0.682 2.859,1.022 2.609,-5.979 2.361,-12.979 2.111,-19.98 c -2.062,-4.674 -1.779,-9.753 -2.324,-14.652 -0.754,-6.781 -2.274,-13.462 -2.371,-20.338 -0.065,-4.653 -3.496,-6.957 -7.349,-8.57 -11.72,-4.904 -23.493,-6.296 -36.003,-2.333 -10.806,3.424 -22.222,4.234 -33.521,5.063 -5.187,0.379 -7.552,-1.588 -9.71,-6.825 -1.148,-2.788 -1.543,-6.368 -5.812,-6.332 -2.446,13.994 -0.366,27.989 0,41.984 1.937,0.966 1.322,2.807 1.55,4.389 1.09,7.563 2.121,15.143 4.055,22.547 1.347,5.154 3.081,5.618 7.176,2.379 3.141,-2.485 5.973,-5.124 8.164,-8.596 4.826,-7.648 13.297,-8.426 19.85,-2.104 1.657,1.598 2.921,3.629 5.299,4.401 4.786,1.555 9.137,-0.006 11.936,-4.441 1.425,-2.259 2.922,-4.481 4.925,-6.238 2.375,-2.083 4.228,-1.472 5.125,1.592 0.659,2.255 0.266,4.636 0.607,6.937 0.936,6.331 4.395,9.022 10.681,8.243 2.142,-0.266 4.296,-0.551 6.392,-1.053 C -5.125,-4.909 -2.04,-3.736 0,0" /></g><g
           transform="translate(245.1157,427.834)"
           id="g52"><path
             id="path54"
             style="fill:#717a83;fill-opacity:1;fill-rule:evenodd;stroke:none"
             d="m 0,0 c 5.284,0.038 10.567,0.075 15.85,0.113 1.993,-1.671 3.986,-3.341 5.98,-5.011 9.463,-1.529 19.064,-2.093 28.418,-4.456 6.199,-1.568 12.057,-3.83 17.518,-7.072 2.507,-1.488 4.671,-2.201 7.292,-0.221 2.452,1.852 5.307,1.541 8.148,0.777 6.729,-1.812 13.184,-4.388 19.662,-6.909 l 0.066,-0.044 c 1.225,-0.403 2.452,-0.802 2.81,-2.278 0.353,-3.449 -1.642,-5.835 -3.708,-8.19 -1.798,-0.897 -3.423,-0.53 -4.927,0.683 -1.442,1.993 0.592,2.778 1.407,3.978 1.214,1.787 0.041,2.204 -1.401,2.48 -5.073,1.54 -10.145,3.079 -15.241,4.526 -1.777,0.504 -4.399,1.968 -5.146,-0.652 -0.679,-2.381 2.355,-2.06 3.834,-2.82 1.919,-0.985 5.412,-0.663 3.83,-4.587 -11.882,-2.745 -23.1,-8.427 -35.682,-8.022 -1.511,0.706 -1.336,1.869 -0.482,2.833 2.662,3.006 0.382,3.765 -1.928,4.827 -5.654,2.6 -11.133,0.292 -16.683,-0.392 -6.739,-1.749 -13.686,-0.557 -20.47,-1.538 -8.234,-1.046 -16.51,-0.231 -24.762,-0.532 -2.059,-0.076 -4.43,0.514 -5.668,-1.988 -1.6,-3.738 -2.704,-7.692 -5.154,-11.042 -1.971,-2.696 -4.146,-4.73 -7.829,-3.504 -0.709,4.251 1.607,7.639 3.278,11.183 2.306,4.888 2.074,5.381 -3.079,5.507 -8.19,0.202 -12.029,-4.191 -10.893,-12.432 0.245,-1.778 0.904,-3.578 -0.096,-5.345 -2.607,-1.34 -4.101,0.024 -5.089,2.225 -0.811,1.809 -1.345,3.74 -2.319,5.486 -0.319,1.027 -0.072,1.989 0.343,2.928 0.562,1.198 1.24,2.343 1.884,3.505 2.945,5.314 2.856,5.494 -3.054,5.674 -1.494,0.045 -2.989,0.016 -4.484,0.013 -5.744,-0.011 -10.856,-1.124 -13.012,-7.433 -4.518,-1.307 -8.835,-0.665 -13.014,1.322 -1.816,2.553 -4.531,3.802 -7.28,5.013 -1.371,0.603 -2.721,1.277 -3.882,2.232 -1.662,1.368 -3.736,2.711 -3.338,5.171 0.386,2.387 2.499,3.626 4.655,3.991 4.045,0.683 5.856,3.291 6.847,6.876 3.978,3.08 8.808,3.853 13.508,4.8 17.667,3.558 35.556,4.314 53.523,3.96 1.436,-0.028 2.96,-0.484 4.337,0.38 -1.291,-0.804 -2.716,-0.348 -4.07,-0.369 -5.463,-0.085 -5.464,-0.051 -7.252,1.31 l 23.651,0.082 c 4.119,0.25 7.951,-2.001 12.107,-1.389 0.777,0.114 2.012,-0.044 2.006,0.933 -0.006,0.923 -1.243,0.867 -2.023,0.953 C 7.19,-2.269 5.351,-2.543 3.58,-2.234 2.161,-1.987 0.038,-2.562 0.005,0.006 Z" /></g><g
           transform="translate(95.0176,260.9473)"
           id="g56"><path
             id="path58"
             style="fill:#80776b;fill-opacity:1;fill-rule:evenodd;stroke:none"
             d="m 0,0 c 2.065,3.356 3.864,1.411 4.585,-0.693 6.736,-19.658 22.449,-27.305 40.665,-34.192 13.794,-5.215 11.236,3.266 12.787,10.039 3.532,15.431 4.626,31.108 4.939,46.872 0.761,7.48 2.01,14.904 2.587,22.405 0.371,4.831 1.662,6.247 5.858,6.329 2.246,-4.77 1.412,-9.852 1.023,-14.729 C 71.307,21.782 71.458,7.467 69.79,-6.761 68.512,-17.656 66.7,-28.514 66.296,-39.493 c -0.304,-8.269 -5.261,-12.473 -12.225,-15.213 -2.354,-4.397 -5.714,-3.565 -9.275,-1.787 -12.551,6.261 -25.179,12.367 -37.654,18.773 -0.458,0.182 -0.924,0.349 -1.4,0.482 -1.368,0.514 -2.783,0.94 -3.949,1.878 -0.314,0.362 -0.549,0.775 -0.712,1.227 1.683,5.659 -1.356,9.54 -4.909,13.306 -1.592,1.688 -3.275,2.654 -5.623,2.006 -4.925,0.726 -8.528,4.258 -12.938,6.084 -4.017,4.278 -9.5,6.046 -14.638,8.313 -5.284,2.333 -9.237,-0.752 -13.028,-3.927 -5.518,1.017 -10.482,3.106 -14.297,7.409 0.338,2.822 2.463,3.149 4.419,2.503 6.186,-2.041 12.262,-2.205 18.55,-0.396 2.375,0.682 4.895,-0.59 7.331,-1.084 0.487,-0.099 1.189,-0.356 1.427,-0.001 0.52,0.769 -0.347,1.133 -0.786,1.535 -4.484,4.113 -9.452,6.36 -15.396,3.281 -5.006,-2.594 -9.494,-2.031 -13.919,1.33 -4.567,3.469 -9.931,5.204 -15.363,6.872 -3.371,1.035 -5.777,1.321 -6.453,-2.983 -0.1,-0.634 -0.835,-0.989 -1.508,-1.164 -10.721,8.552 -4.333,20.494 -6.107,30.818 0.229,3.081 0.458,6.163 0.687,9.244 2.866,-3.097 7.26,-3.171 10.601,-6.138 8.041,-7.14 15.85,-16.648 27.149,-16.9 7.557,-0.168 12.199,-0.161 13.113,-8.517 6.62,2.371 7.695,-6.566 13.32,-6.476 7.207,0.117 12.526,-4.58 18.381,-7.807 0.77,-0.424 1.61,-2.122 1.342,-2.814 -3.02,-7.793 2.281,-4.687 5.508,-4.305 0.845,-0.583 1.851,-2.742 2.387,0.156 C 0.562,-2.539 0.846,-1.195 0,0" /></g><g
           transform="translate(462.9336,132.9736)"
           id="g60"><path
             id="path62"
             style="fill:#1e2931;fill-opacity:1;fill-rule:evenodd;stroke:none"
             d="m 0,0 c -1.901,-11.404 -9.84,-4.815 -14.78,-4.256 -6.927,0.784 -9.588,-1.705 -10.217,-7.977 -0.376,-3.743 1.702,-8.996 -3.321,-10.397 -5.676,-1.584 -7.323,4.488 -9.495,7.82 -4.694,7.194 -9.179,6.979 -14.362,1.128 -7.224,-8.155 -18.484,-7.38 -23.396,2.21 -2.188,4.273 -6.307,6.059 -9.295,9.202 -2.45,2.575 -2.762,-1.392 -3.033,-2.907 -1.488,-8.276 -2.709,-16.599 -4.17,-24.88 -0.222,-1.251 0.21,-4.586 -2.91,-1.926 -2.733,35.354 2.676,70.632 0.993,105.977 -0.607,0.551 -1.019,1.22 -1.237,2.01 0.33,5.107 -3.74,9.174 -3.402,14.288 1.757,2.756 4.162,1.509 6.24,0.774 3.289,-1.165 6.45,-2.725 9.474,-4.459 4.975,-2.855 9.999,-2.944 15.39,-1.338 16.584,4.941 33.462,8.787 50.328,12.591 7.532,1.699 13.318,4.094 13.656,12.881 0.663,1.467 1.589,2.699 3.1,3.393 1.458,0.562 2.373,-0.504 3.43,-1.15 0.354,-0.653 0.707,-1.307 1.061,-1.96 C 3.384,109.711 2.141,108.4 2.135,107.084 2.088,94.931 -6.646,94.191 -15.606,92.465 -30.868,89.525 -45.958,85.677 -61.09,82.082 c -8.639,-2.053 -12.02,-8.013 -11.92,-16.545 0.116,-9.827 -0.042,-19.658 0.059,-29.486 0.047,-4.488 0.914,-7.838 6.98,-7.945 3.471,-0.061 9.202,0.817 9.08,-6.27 -0.135,-7.931 -6.823,-5.572 -10.525,-6.472 -4.048,-0.984 -7.393,-2.092 -6.287,-6.197 1.223,-4.536 -0.12,-10.832 7.562,-12.331 8.882,-1.734 15.858,9.378 23.36,4.781 12.595,-7.72 25.322,2.141 37.505,-2.488 C -3.836,-1.418 -1.773,-0.33 0,0" /></g><g
           transform="translate(349.9756,403.0718)"
           id="g64"><path
             id="path66"
             style="fill:#e6e7f0;fill-opacity:1;fill-rule:evenodd;stroke:none"
             d="m 0,0 c -0.642,0.646 -1.284,1.293 -1.926,1.939 8.751,-0.687 16.461,-4.819 24.618,-7.465 2.162,-0.702 4.257,-1.608 6.381,-2.42 0.353,-0.601 0.884,-1.057 1.528,-1.206 10.799,-2.497 19.56,-9.603 29.853,-13.199 4.402,-1.537 8.731,-2.938 12.484,-5.939 4.429,-3.544 4.778,-7.936 3.985,-13.016 -0.778,-4.986 -4.059,-7.151 -8.427,-7.901 -15.488,-2.66 -30.611,-7.289 -46.554,-7.606 -6.864,-0.137 -13.512,-3.077 -20.386,-4.276 -21.414,-3.74 -42.75,-7.889 -64.479,-9.56 -9.443,-0.726 -18.711,-2.737 -27.912,-5.057 -12.933,-3.261 -26.369,-2.763 -39.443,-4.956 -7.562,-1.268 -15.762,-0.354 -22.231,-5.85 -0.852,-0.273 -1.656,-0.219 -2.373,0.371 0.298,5.874 2.267,8.568 7.832,9.808 9.095,2.028 18.231,3.864 27.548,4.652 14.954,1.264 29.601,4.51 44.3,7.303 5.749,1.092 11.558,1.396 17.264,2.452 11.758,2.175 23.381,5.072 35.261,6.605 0.661,0.085 1.426,0.134 1.906,0.541 7.199,6.095 16.631,8.127 24.288,13.417 3.87,2.675 5.569,6.259 6.493,10.726 1.72,8.311 0.535,15.172 -7.881,19.194 C 3.648,-7.22 2.293,-3.522 0,0" /></g><g
           transform="translate(54.9912,394.9834)"
           id="g68"><path
             id="path70"
             style="fill:#dddddf;fill-opacity:1;fill-rule:evenodd;stroke:none"
             d="m 0,0 c 18.768,4.608 37.535,9.216 56.304,13.823 2.48,-0.457 3.221,-2.151 3.15,-4.426 -4.835,-4.46 -10.709,-7.574 -15.578,-12.021 -2.087,-1.905 -4.27,-3.605 -5.788,-6.091 -4.338,-7.107 -4.917,-13.964 0.729,-20.709 2.009,-2.398 2.937,-5.266 2.328,-8.38 -0.573,-2.93 0.807,-4.432 3.032,-6.108 12.534,-9.445 26.769,-15.298 41.562,-19.95 5.817,-1.829 11.217,-5.049 17.645,-4.953 5.755,0.086 10.753,1.655 14.978,5.656 1.261,1.194 2.5,2.826 4.697,2.044 1.921,-3.071 -0.438,-5.115 -2.022,-7.011 -5.931,-7.094 -13.912,-9.022 -22.619,-7.642 -5.386,0.854 -10.598,2.692 -15.586,5.123 -5.811,2.833 -12.409,3.29 -18.365,6.022 -6.019,2.761 -12.247,5.102 -18.292,7.873 -17.369,7.963 -33.959,17.485 -51.307,25.479 -6.652,3.064 -8.664,9.818 -12.132,15.334 -1.303,2.075 0.891,4.011 2.65,5.337 3.092,2.331 6.672,3.786 10.302,4.948 C -1.369,-4.71 0.177,-3.12 0,0" /></g><g
           transform="translate(54.9912,394.9834)"
           id="g72"><path
             id="path74"
             style="fill:#d5d6d9;fill-opacity:1;fill-rule:evenodd;stroke:none"
             d="m 0,0 c 3.139,-3.178 3.149,-5.374 -1.847,-6.164 -0.953,-0.151 -1.85,-0.722 -2.747,-1.154 -4.362,-2.097 -12.769,-3.731 -11.342,-7.614 2.105,-5.73 5.253,-12.354 12.554,-15.685 24.37,-11.119 47.231,-25.665 72.787,-34.002 13.661,-4.457 26.994,-13.845 42.241,-8.758 4.672,1.559 10.983,5.142 11.308,12.373 -0.013,0.239 -0.025,0.479 -0.04,0.719 2.49,5.026 4.182,10.48 7.849,14.879 2.413,2.894 2.544,6.83 4.603,9.88 2.76,1.379 2.629,-1.017 3.23,-2.467 -1.323,-6.479 -5.067,-11.87 -8.085,-17.566 -2.183,-4.117 -4.42,-8.196 -6.263,-12.474 -0.142,-4.681 3.651,-8.889 8.627,-9.52 2.136,-0.271 4.305,0.108 6.439,-0.276 0.223,-0.047 0.446,-0.096 0.669,-0.146 0.655,-0.002 1.31,-0.005 1.965,-0.007 7.201,4.618 15.637,4.073 23.567,5.314 15.691,2.456 31.676,2.849 47.165,6.871 6.764,1.756 13.789,2.32 20.708,3.089 17.644,1.957 35.216,4.066 52.63,7.756 17.139,3.63 34.463,6.395 51.817,8.961 16.107,2.382 31.836,6.753 47.711,10.336 6.121,1.382 6.242,2.339 1.893,7.103 -2.168,2.377 -3.631,4.686 0.523,6.553 7.371,-2.614 14.741,-5.228 22.111,-7.841 -0.355,-1.787 -0.741,-3.563 -0.96,-5.381 -0.491,-4.085 -2.888,-6.55 -6.79,-7.666 -6.045,-1.728 -12.255,-2.556 -18.429,-3.642 -9.762,-1.717 -19.638,-2.71 -29.338,-4.784 -16.902,-3.829 -34.157,-5.429 -51.26,-7.911 -23.359,-3.389 -46.711,-6.849 -70.106,-9.999 -28.01,-3.772 -56.03,-7.474 -84.03,-11.329 -3.122,0.14 -6.168,-0.179 -9.281,-0.69 -7.06,-1.159 -14.06,-0.35 -20.858,1.949 -0.756,0.319 -1.576,0.434 -2.364,0.642 -3.859,0.782 -7.53,-0.81 -11.351,-0.909 -7.455,-0.19 -14.304,1.175 -21.224,4.208 -15.357,6.732 -31.311,12.022 -46.814,18.439 -4.449,1.842 -9.011,3.412 -13.291,5.648 -8.84,3.786 -16.989,8.987 -25.952,12.549 -12.983,5.161 -24.561,13.219 -37.54,18.424 -1.673,0.671 -3.339,1.788 -3.111,4.035 0.202,1.999 1.993,2.445 3.439,3.221 7.954,4.263 17.039,5.378 25.194,9.076 C -9.329,-2.64 -4.665,-1.32 0,0" /></g><g
           transform="translate(109.98,78.9966)"
           id="g76"><path
             id="path78"
             style="fill:#4f4a43;fill-opacity:1;fill-rule:evenodd;stroke:none"
             d="m 0,0 c 4.3,-2.119 8.811,-1.542 13.088,-0.388 7.424,2.003 14.833,1.055 22.099,-0.003 10.049,-1.463 12.328,-6.861 9.494,-20.059 -2.895,-13.486 1.781,-18.823 15.3,-17.619 4.634,0.413 7.729,-2.13 10.032,-5.868 -2.687,-2.501 -5.993,-1.181 -9.039,-1.465 -0.516,-0.048 -1.046,0.168 -1.551,-0.087 0.49,-0.101 0.989,-0.13 1.482,-0.201 3.769,-0.542 7.567,-1.566 11.156,0.712 0.313,-8.889 0.661,-17.775 0.917,-26.665 0.073,-2.551 -0.132,-5.113 3.364,-5.499 -8.435,-4.369 -16.262,0.126 -23.806,2.566 -2.568,0.832 -5.132,0.667 -7.535,1.561 -0.927,0.753 -2.04,1.096 -3.153,1.445 -6.489,2.035 -7.186,2.945 -6.356,9.532 0.255,2.028 -0.16,3.172 -2.134,3.767 -2.092,0.63 -4.114,1.428 -5.21,3.557 -0.901,4.027 -1.454,8.094 -1.829,12.208 -0.192,2.108 -1.171,4.123 -2.591,5.816 -1.722,5.743 -3.087,11.428 -0.634,17.413 1.474,3.593 -0.484,6.07 -4.942,6.522 -4.947,0.501 -9.94,-0.034 -14.902,0.318 -2.144,0.153 -4.31,0.134 -6.429,0.613 -6.516,3.128 -8.698,9.076 -6.645,18.062 0.479,0.747 1.517,1.392 1.902,0.618 C -6.213,3.414 -2.282,2.678 0,0" /></g><g
           transform="translate(109.98,78.9966)"
           id="g80"><path
             id="path82"
             style="fill:#3f4243;fill-opacity:1;fill-rule:evenodd;stroke:none"
             d="m 0,0 c -4.192,0.792 -7.64,2.541 -8.989,6.99 -2.997,4.452 -2.943,9.791 -4.12,14.739 -3.362,14.13 -13.193,21.748 -25.893,26.72 -3.919,1.535 -5.292,-0.35 -6.2,-3.905 -2.415,-9.469 -2.452,-19.124 -2.582,-28.768 -0.063,-4.675 -0.319,-9.332 -0.986,-13.937 -0.709,-4.896 -2.985,-6.839 -7.203,-6.853 -3.692,2.655 -7.384,5.31 -11.077,7.965 2.078,8.331 10.955,14.081 9.068,23.921 -1.463,7.62 4.237,13.207 5.633,19.804 1.792,8.474 1.034,17.488 1.374,26.269 1.502,4.029 0.811,8.056 -0.006,12.084 0,0.64 0,1.28 -10e-4,1.92 -1.101,6.422 -0.411,12.894 -0.447,19.339 -0.049,8.616 -0.296,17.203 -1.549,25.738 1.092,6.283 -2.303,13.036 1.992,18.983 4.445,0.788 5.694,-2.106 6.445,-5.582 -1.089,-4.558 -1.294,-9.237 -1.159,-13.859 0.468,-15.943 0.492,-31.879 -0.018,-47.819 -0.123,-3.847 0.281,-7.643 1.569,-11.285 0.481,-1.358 0.826,-3.137 2.611,-3.303 1.808,-0.168 2.389,1.532 3.111,2.801 1.139,2 1.409,4.467 3.254,6.088 2.651,1.073 3.345,-0.931 3.623,-2.692 0.863,-5.467 4.61,-7.346 9.421,-7.878 2.584,-0.286 4.771,-1.038 6.597,-2.995 2.242,-2.402 2.909,-0.964 3.1,1.435 0.142,1.774 -0.197,3.714 1.465,5.058 0.657,-9.999 2.028,-20.013 1.8,-29.991 C -9.497,26.436 -9.219,12.296 0,0" /></g><g
           transform="translate(367.9541,59.0068)"
           id="g84"><path
             id="path86"
             style="fill:#4c4741;fill-opacity:1;fill-rule:evenodd;stroke:none"
             d="m 0,0 c 0.948,0.904 2.558,1.691 2.742,2.731 2.159,12.19 9.908,13.248 20.315,11.434 9.084,-1.583 18.432,-1.862 27.243,-4.824 12.245,-4.116 23.813,-1.766 35.249,2.926 3.991,1.638 5.14,4.571 5.628,8.935 1.229,11.028 0.362,22.519 5.914,32.784 C 96.688,42.031 97.302,29.919 95.501,18.178 94.41,11.07 87.907,5.155 80.937,3.379 57.169,-2.675 33.303,-8.816 9.102,-12.45 0.249,-13.78 -7.076,-19.226 -16.001,-18.918 -10.161,-13.04 -2.982,-8.295 0,0" /></g><g
           transform="translate(73.7598,59.8882)"
           id="g88"><path
             id="path90"
             style="fill:#61615f;fill-opacity:1;fill-rule:evenodd;stroke:none"
             d="m 0,0 c -4.256,3.035 -8.513,6.069 -12.77,9.104 0.743,4.872 2.22,9.583 3.114,14.441 0.924,5.022 2.495,9.911 2.74,15.1 0.119,2.519 1.405,4.782 3.29,6.545 3.149,2.948 7.327,2.626 10.027,-0.726 0.732,-0.909 1.359,-1.916 1.772,-2.995 2.528,-6.599 6.14,-12.445 11.302,-17.36 1.789,-1.703 2.949,-4.002 3.903,-6.327 1.818,-4.443 4.278,-8.6 5.819,-13.178 0.934,-2.774 3.285,-3.999 5.938,-4.848 3.552,-1.137 6.306,-3.673 5.223,-7.367 -2.821,-9.62 3.988,-14.252 9.778,-18.695 5.121,-3.931 7.414,-9.209 10.236,-14.41 0.398,-0.735 0.354,-1.614 -0.211,-2.354 -2.34,1.649 -4.68,3.296 -7.02,4.945 -4.977,5.638 -11.991,8.682 -17.457,13.795 -3.463,3.24 -6.126,6.467 -6.872,11.125 -0.453,2.829 -1.632,5.372 -2.662,8.013 -1.835,4.707 -5.127,7.029 -9.993,7.865 C 13.349,3.155 10.919,3.205 8.739,1.132 6.124,-1.354 3.169,-1.599 0,0" /></g><g
           transform="translate(96,76.9731)"
           id="g92"><path
             id="path94"
             style="fill:#4d5050;fill-opacity:1;fill-rule:evenodd;stroke:none"
             d="m 0,0 c -5.591,8.923 -13.699,16.21 -17.016,26.65 -0.698,2.197 -3.244,2.876 -5.544,1.975 -4.16,-1.63 -4.983,-5.257 -5.494,-9.238 -1.206,-9.391 -1.848,-18.957 -6.956,-27.368 -2.327,1.664 -4.655,3.327 -6.983,4.99 9.705,4.114 6.059,13.141 6.517,19.974 0.749,11.179 0.491,22.39 3.667,33.291 0.753,2.588 1.423,3.611 4.734,2.455 C -5.505,45.202 4.377,31.97 4.991,9.013 5.235,2.434 3.352,-4.854 10.98,-8.976 8.01,-11.089 6.021,-9.627 4.603,-7.021 3.256,-4.544 1.614,-2.288 0,0" /></g><g
           transform="translate(442.9531,372.9849)"
           id="g96"><path
             id="path98"
             style="fill:#dddddf;fill-opacity:1;fill-rule:evenodd;stroke:none"
             d="m 0,0 c -2.027,-2.329 -2.071,-3.973 0.956,-5.821 1.949,-1.189 4.467,-3.721 4.356,-5.503 -0.184,-2.988 -3.835,-3.184 -6.365,-3.68 -35.651,-6.993 -71.243,-14.321 -107.004,-20.711 -23.185,-4.143 -46.622,-6.87 -69.94,-10.271 -22.676,-3.307 -45.345,-6.664 -68.017,-9.998 5.135,7.261 13.516,6.283 20.457,6.648 24.902,1.308 48.853,8.844 73.493,10.825 34.051,2.737 66.946,12.185 100.834,15.608 9.009,0.91 17.822,3.638 26.788,5.156 6.655,1.127 7.337,6.034 7.329,11.042 -0.011,7.128 -6.078,9.484 -11.216,11.477 -6.655,2.582 -13.777,4.049 -19.117,9.191 -4.663,4.491 -12.071,3.258 -16.458,8.176 C -42.602,14.76 -21.301,7.38 0,0" /></g><g
           transform="translate(96,76.9731)"
           id="g100"><path
             id="path102"
             style="fill:#5d594f;fill-opacity:1;fill-rule:evenodd;stroke:none"
             d="m 0,0 c 4.792,-1.607 4.039,-9.998 10.98,-8.976 7.743,-0.023 15.565,0.602 23.195,-0.335 3.933,-0.483 7.716,-3.418 4.302,-8.999 -3.157,-5.16 -0.476,-10.467 0.512,-15.676 2.872,-6.004 2.078,-12.778 3.988,-18.984 4.86,-1.828 10.535,-2.108 7.48,-10.665 -1.723,-4.825 7.103,-3.023 8.524,-7.357 -9.184,-0.592 -14.519,6.294 -21.06,10.837 -3.116,10.144 -11.508,16.254 -18.719,22.879 -3.899,3.583 -3.289,6.57 -2.66,10.293 0.486,2.88 1.305,6.751 -1.918,7.323 C 3.209,-17.634 4.67,-6.647 0,0" /></g><g
           transform="translate(73.7598,59.8882)"
           id="g104"><path
             id="path106"
             style="fill:#736e67;fill-opacity:1;fill-rule:evenodd;stroke:none"
             d="m 0,0 c 6.664,-1.932 10.229,6.995 18.243,4.112 7.918,-2.849 10.436,-8.755 11.332,-14.662 1.63,-10.741 9.623,-15.264 16.794,-20.719 2.678,-2.036 5.446,-3.628 6.772,-6.856 C 35.427,-25.417 17.714,-12.708 0,0" /></g><g
           transform="translate(40.998,391.0229)"
           id="g108"><path
             id="path110"
             style="fill:#c3c2c0;fill-opacity:1;fill-rule:evenodd;stroke:none"
             d="m 0,0 c -6.842,-5.982 -16.464,-5.44 -23.844,-10.159 -1.304,-0.834 -2.619,-1.65 -3.928,-2.474 1.252,-0.977 2.381,-2.203 3.776,-2.892 20.651,-10.196 41.337,-20.322 62.015,-30.463 -1.427,-1.525 -3.074,-0.941 -4.623,-0.372 -21.212,7.789 -42.207,16.128 -63.01,24.948 -0.844,0.358 -1.911,0.676 -2.279,1.763 -2.019,1.172 -4.038,2.344 -6.057,3.516 C -28.054,-4.277 -13.676,-2.963 0,0" /></g><g
           transform="translate(8.9678,269.8979)"
           id="g112"><path
             id="path114"
             style="fill:#797363;fill-opacity:1;fill-rule:evenodd;stroke:none"
             d="m 0,0 c 4.209,16.58 13.651,3.062 18.066,1.46 7.726,-2.803 13.605,-7.333 22.707,-3.028 6.54,3.092 11.392,-3.339 15.928,-7.648 0.283,-0.268 0.247,-0.872 0.359,-1.32 -1.446,-0.049 -3.06,-0.547 -4.31,-0.077 -9.435,3.546 -19.655,-3.032 -28.952,2.26 -0.228,0.129 -1.154,-0.97 -1.755,-1.496 -4.685,-0.688 -7.789,2.732 -11.525,4.481 C 7.17,-3.801 4.131,-1.38 0.093,-1.941 0.062,-1.294 0.031,-0.647 0,0" /></g><g
           transform="translate(113.9854,404.7563)"
           id="g116"><path
             id="path118"
             style="fill:#5c646c;fill-opacity:1;fill-rule:evenodd;stroke:none"
             d="m 0,0 c -0.897,1.351 -1.794,2.701 -2.69,4.05 8.959,10.539 21.857,6.525 33.022,8.907 1.121,0.238 2.321,0.102 3.484,0.139 2.519,-1.592 4.181,-3.693 4.07,-6.847 1.599,1.817 3.3,3.334 5.962,2.035 C 45.85,3.885 42.669,2.915 39.605,2.262 37.268,1.764 34.338,1.355 33.946,-0.909 33.494,-3.521 36.59,-4.58 38.48,-6.062 c 2.679,-2.101 7.447,-1.241 8.325,-5.867 -5.973,-2.745 -11.8,-0.584 -15.597,3.19 C 26.865,-4.42 22.236,-1.21 16.829,1.226 17.84,5.089 19.711,6 26.13,5.08 29.743,4.562 29.929,5.913 28.6,8.581 27.52,9.47 26.382,9.19 25.229,8.73 20.979,7.266 16.432,7.036 12.223,5.36 10.119,4.522 8.432,3.417 7.299,1.463 5.096,-0.174 2.865,-1.682 0,0" /></g><g
           transform="translate(465.9268,245.9575)"
           id="g120"><path
             id="path122"
             style="fill:#5c5752;fill-opacity:1;fill-rule:evenodd;stroke:none"
             d="m 0,0 c -0.97,0.351 -1.937,0.701 -2.906,1.051 -0.289,0.06 -0.578,0.119 -0.868,0.178 -3.32,2.188 -2.69,5.171 -1.209,7.919 2.94,5.458 3.589,11.299 3.547,17.317 -0.122,17.199 1.337,34.334 1.979,51.503 0.08,2.143 0.278,4.336 -0.538,6.42 -0.961,6.694 1.101,13.48 -0.738,20.196 -0.526,1.915 1.159,3.699 2.045,5.467 0.401,0.46 0.887,0.79 1.459,1.001 1.384,0.259 1.734,-0.599 1.71,-1.692 C 4.324,102.14 4.926,94.908 4.158,87.697 3.747,62.433 3.202,37.17 3.052,11.905 3.025,7.49 -2.469,4.815 0,0" /></g><g
           transform="translate(347.9834,405.0547)"
           id="g124"><path
             id="path126"
             style="fill:#ebe8e8;fill-opacity:1;fill-rule:evenodd;stroke:none"
             d="M 0,0 C -27.263,4.826 -54.134,11.43 -81.038,17.881 -54.098,17.407 -27.788,13.678 -2.926,2.615 -1.788,2.109 -0.968,0.888 0,0" /></g><g
           transform="translate(157.8335,413.04)"
           id="g128"><path
             id="path130"
             style="fill:#e8e5e6;fill-opacity:1;fill-rule:evenodd;stroke:none"
             d="m 0,0 c -6.389,-4.743 -7.885,0.713 -10.032,4.812 23.234,5.223 46.782,7.235 70.56,6.938 3.755,-0.451 7.509,-0.9 11.262,-1.351 C 67.81,10.273 63.806,10.383 59.854,9.981 41.269,8.093 22.397,8.15 4.41,2.096 2.878,1.58 1.467,0.707 0,0" /></g><g
           transform="translate(9.0605,267.9565)"
           id="g132"><path
             id="path134"
             style="fill:#4f4f4e;fill-opacity:1;fill-rule:evenodd;stroke:none"
             d="m 0,0 c 2.737,3.592 5.031,0.278 7.227,-0.683 5.002,-2.192 9.827,-4.792 14.724,-7.225 4.655,-2.364 9.311,-4.73 13.967,-7.095 1.961,0.028 3.851,-0.83 4.853,-2.184 3.333,-4.505 7.722,-5.126 12.736,-4.281 0.666,0.113 1.294,-0.186 1.768,-0.717 0.338,-1.852 -0.141,-3.018 -2.314,-2.767 C 33.688,-24.667 21.447,-9.674 5.545,-2.339 3.806,-1.537 1.762,-1.396 -0.141,-0.949 -0.094,-0.632 -0.047,-0.316 0,0" /></g><g
           transform="translate(409.9258,344.9805)"
           id="g136"><path
             id="path138"
             style="fill:#ababad;fill-opacity:1;fill-rule:evenodd;stroke:none"
             d="m 0,0 c 12.137,2.009 24.473,3.25 36.328,6.342 6.238,1.627 17.915,-1.738 15.943,11.864 -0.276,1.913 1.688,1.609 2.868,1.956 1.308,-0.628 2.617,-1.256 3.925,-1.884 0.87,-2.598 1.21,-5.12 -1.066,-7.255 L 57.965,10.98 C 56.842,7.504 54.538,5.329 50.882,4.844 35.564,2.81 20.316,0.286 4.968,-1.537 3.22,-1.321 1.304,-1.643 0,0" /></g><g
           transform="translate(245.1211,427.8398)"
           id="g140"><path
             id="path142"
             style="fill:#c3c3c5;fill-opacity:1;fill-rule:evenodd;stroke:none"
             d="m 0,0 c 3.408,-1.989 7.085,-0.729 10.626,-0.758 2.362,-0.019 3.456,-1.058 3.593,-3.111 C 14.377,-6.265 12.324,-5.786 11.016,-5.75 6.166,-5.613 1.09,-6.461 -3.107,-2.968 -2.071,-1.979 -1.036,-0.989 0,0" /></g><g
           transform="translate(467.9238,356.0034)"
           id="g144"><path
             id="path146"
             style="fill:#716d60;fill-opacity:1;fill-rule:evenodd;stroke:none"
             d="M 0,0 C 0.355,2.418 0.711,4.837 1.066,7.255 5.152,-2.475 2.104,-12.469 2.161,-22.348 2.095,-15.943 2.098,-9.535 1.897,-3.133 1.861,-1.969 3.352,0.646 0,0" /></g><g
           transform="translate(99.0127,149.9746)"
           id="g148"><path
             id="path150"
             style="fill:#34414a;fill-opacity:1;fill-rule:evenodd;stroke:none"
             d="m 0,0 c -0.008,-1.995 0.157,-4.009 -0.081,-5.976 -0.185,-1.535 -0.434,-3.772 -1.432,-4.344 -1.74,-0.999 -3.166,1.028 -3.777,2.356 -2.021,4.396 -6.073,2.442 -9.197,3.266 -6.08,1.604 -7.366,6.573 -8.508,11.702 0.24,3.396 0.851,3.933 3.924,2.888 3.815,-1.297 7.086,-3.661 10.51,-5.718 0.677,-0.406 1.728,-1.069 2.209,-0.335 0.568,0.865 -0.579,1.379 -1.235,1.773 -3.716,2.224 -7.475,4.378 -11.12,6.715 -1.976,1.267 -4.65,10.095 -3.674,12.067 0.925,1.87 2.517,1.273 3.903,0.752 3.288,-1.235 6.247,-3.125 9.296,-4.835 0.809,-0.453 1.953,-1.294 2.622,-0.163 0.584,0.989 -0.468,1.828 -1.257,2.396 -3.115,2.243 -6.472,4.089 -9.838,5.919 -4.146,2.255 -6.842,7.516 -6.083,11.936 0.48,2.801 2.358,2.431 4.137,1.514 3.255,-1.679 6.422,-3.531 9.748,-5.068 1.105,-0.51 2.556,-2.094 3.451,-0.622 1.006,1.652 -0.899,2.652 -2.144,3.325 -3.805,2.059 -7.569,4.212 -11.6,5.82 -4.254,1.697 -6.87,8.93 -4.61,12.8 1.179,2.019 2.787,1.542 4.264,0.561 2.932,-1.949 6.306,-3.013 9.305,-4.831 1.341,-0.812 3.555,-2.602 4.33,-1.107 1.064,2.055 -1.872,2.599 -3.253,3.473 -3.526,2.235 -7.438,3.709 -11.306,5.26 -4.396,1.764 -4.794,3.766 -1.701,7.84 4.566,0.041 7.892,-3.007 11.676,-4.836 5.815,-2.81 6.385,-2.641 9.583,2.905 1.377,2.389 1.024,5.641 3.732,7.311 0.288,0.051 0.575,0.103 0.862,0.156 2.349,-4.048 6.614,-5.601 10.486,-7.174 11.272,-4.579 21.476,-11.27 32.71,-15.934 6.84,-2.839 8.094,-9.222 4.332,-17.46 -10.01,2.393 -17.619,9.723 -27.151,13.159 -6.215,2.24 -12.212,5.075 -18.349,7.538 C 0.743,56.643 -0.08,54.516 -0.049,50.946 0.058,38.624 -0.005,26.299 -0.003,13.975 -0.002,9.316 -0.001,4.658 0,0" /></g><g
           transform="translate(289.0801,207.0371)"
           id="g152"><path
             id="path154"
             style="fill:#444e56;fill-opacity:1;fill-rule:evenodd;stroke:none"
             d="m 0,0 c -1.348,-0.52 -3.67,-0.773 -3.896,-1.601 -4.191,-15.282 -18.169,-11.92 -28.377,-14.089 -20.215,-4.295 -40.782,-7.01 -61.267,-9.932 -10.528,-1.502 -21.083,0.133 -31.563,1.547 3.492,2.83 7.622,1.206 11.457,1.621 1.144,0.123 2.379,0.242 3.457,-0.074 8.684,-2.546 14.631,-0.024 17.163,9.049 1.575,1.991 3.842,2.465 6.169,2.889 26.05,4.739 52.274,8.535 78.133,14.315 2.123,0.474 4.247,0.892 6.426,0.325 C -0.555,3.255 0.949,2.321 0,0" /></g><g
           transform="translate(197.0176,192.9229)"
           id="g156"><path
             id="path158"
             style="fill:#6c7070;fill-opacity:1;fill-rule:evenodd;stroke:none"
             d="m 0,0 c -1.711,-10.667 -8.104,-12.387 -17.651,-10.164 -4.881,1.136 -10.244,0.202 -15.389,0.203 -4.902,0.446 -9.804,0.893 -14.703,1.342 4.891,19.694 -13.772,18.074 -22.899,24.661 -6.32,4.561 -14.078,7.176 -21.304,10.413 -2.616,1.171 -3.162,3.096 -3.321,5.498 13.202,-6.531 26.384,-13.102 39.631,-19.54 1.787,-0.869 4.157,-3.24 5.609,0.61 1.61,0.548 2.088,-0.577 2.557,-1.722 -0.033,-2.238 0.647,-4.118 2.696,-5.308 3.476,-1.906 7.331,-1.861 11.106,-2.326 9.512,-1.172 19.108,-1 28.63,-1.959 C -3.225,1.525 -1.357,1.519 0,0" /></g><g
           transform="translate(289.0801,207.0371)"
           id="g160"><path
             id="path162"
             style="fill:#659eb0;fill-opacity:1;fill-rule:evenodd;stroke:none"
             d="M 0,0 C -0.727,1.031 -1.453,2.062 -2.18,3.091 -5.661,6.41 -1.952,7.164 -0.211,8.627 0.81,8.977 1.831,8.986 2.854,8.626 6.271,6.668 7.259,3.071 8.784,-0.173 8.933,-0.698 8.995,-1.23 8.991,-1.774 6.937,-6.387 5.052,-6.908 1.031,-3.98 0.687,-2.653 0.343,-1.327 0,0" /></g><g
           transform="translate(290.1113,203.0566)"
           id="g164"><path
             id="path166"
             style="fill:#3e6f81;fill-opacity:1;fill-rule:evenodd;stroke:none"
             d="M 0,0 C 3.1,-0.824 6.242,-1.748 6.869,3.031 9.12,2.959 9.898,1.953 8.906,-0.178 9.337,-6.69 6.341,-9.238 -0.02,-7.888 -0.013,-5.258 -0.007,-2.629 0,0" /></g><g
           transform="translate(409.9258,344.9805)"
           id="g168"><path
             id="path170"
             style="fill:#7c7872;fill-opacity:1;fill-rule:evenodd;stroke:none"
             d="m 0,0 c 1.676,-0.026 3.352,-0.053 5.027,-0.08 -2.032,-3.027 -5.4,-4.4 -8.163,-6.513 -2.687,-2.054 -4.921,-7.84 -3.968,-11.038 0.548,-1.835 1.849,-2.666 3.662,-2.863 3.229,-0.351 6.296,-0.004 8.96,2.094 0.458,0.214 0.933,0.364 1.426,0.472 5.996,0.244 11.472,-1.471 16.586,-4.473 1.281,-0.752 2.815,-1.592 2.479,-3.356 -0.344,-1.808 -2.019,-2.195 -3.555,-1.992 -5.058,0.668 -7.913,-1.653 -10.221,-6.057 -2.717,-5.187 -7.687,-7.795 -13.449,-8.4 -5.412,-0.568 -9.898,-2.718 -13.557,-6.675 -2.434,-2.634 -5.665,-3.358 -9,-3.816 -4.361,-0.599 -7.975,-2.133 -9.742,-6.642 -1.108,-2.831 -3.938,-3.446 -6.507,-4.087 -3.356,-0.838 -5.701,-2.435 -7.775,-5.499 -3.137,-4.631 -8.081,-7.377 -13.625,-8.589 -4.276,-0.936 -8.162,-2.497 -11.929,-4.829 -7.295,-4.515 -15.201,-2.597 -22.661,-0.604 -6.583,1.759 -14.754,0.305 -19.104,-4.595 -1.305,-1.468 -0.577,-2.361 0.434,-3.349 1.945,-1.897 3.601,-3.966 3.826,-6.807 0.136,-1.73 -0.18,-3.367 -1.784,-4.384 -1.746,-1.107 -3.478,-0.391 -4.48,0.912 -3.009,3.908 -8.174,5.003 -11.146,8.986 -1.599,2.145 -3.861,1.417 -5.796,0.054 -2.594,-1.827 -3.767,-4.552 -4.724,-7.45 -0.795,-2.406 -2.462,-4.01 -5.082,-4.15 -2.652,-0.143 -3.201,1.978 -3.695,3.941 -0.794,3.158 -3.045,4.241 -5.976,4.18 -6.372,-0.134 -12.588,0.751 -18.738,-3.226 -3.984,-2.576 -9.418,0.165 -13.375,2.736 -2.808,1.825 -5.006,2.117 -7.776,0.672 -2.394,-1.248 -4.901,-1.911 -7.68,-1.764 -5.278,0.279 -6.63,-0.656 -7.021,-5.915 -0.495,-6.655 -1.829,-13.193 -2.311,-19.834 -0.183,-2.518 -0.617,-4.959 -1.625,-7.274 -1.293,-2.97 -2.713,-5.96 -6.601,-5.874 -4.153,0.091 -6.959,2.457 -8.107,6.281 -1.435,4.781 -3.294,9.474 -4.192,14.374 -1.798,9.825 -2.948,19.768 -3.341,29.738 -0.233,5.89 -1.282,11.525 -2.825,17.138 -0.864,8.289 -0.21,16.603 -0.414,24.904 -0.057,2.325 0.03,4.66 -0.641,6.926 -0.867,2.926 -2.481,4.685 -5.832,3.707 -7.256,-7.276 -3.341,-17.545 -6.905,-25.816 -0.437,-1.014 -0.679,-2.112 -1.01,-3.171 -0.004,2.333 -0.008,4.667 -0.012,7 1.247,6.885 0.322,13.849 0.709,20.773 0.214,3.818 1.147,5.927 5.457,5.797 2.595,-0.08 5.294,0.297 7.787,1.335 0.685,-0.002 1.371,-0.004 2.056,-0.006 0.506,-0.652 0.471,-2.038 1.186,-2.07 5.503,-0.25 5.456,-4.515 5.986,-8.212 0.899,-6.282 0.471,-12.624 0.405,-18.936 -0.122,-11.805 4.348,-22.826 5.651,-34.382 0.138,-1.23 0.707,-2.93 2.255,-2.903 1.622,0.028 1.729,1.816 2.052,3.042 1.495,5.69 0.693,11.578 1.468,17.363 1.21,9.039 4.031,17.879 3.392,27.164 -0.216,3.147 -0.194,6.297 -0.688,9.438 -0.864,5.508 0.31,6.827 5.88,7.073 0.821,0.036 1.668,-0.088 2.375,0.488 37.214,5.099 74.444,10.093 111.639,15.327 C -62.869,-9.288 -31.443,-4.583 0,0" /></g><g
           transform="translate(171.9336,317.8789)"
           id="g172"><path
             id="path174"
             style="fill:#8c8478;fill-opacity:1;fill-rule:evenodd;stroke:none"
             d="m 0,0 c -17.034,-1.275 -10.412,-15.201 -12.954,-24.226 -0.345,-1.223 -0.667,-2.453 -0.999,-3.679 0,20.798 0.093,21.076 -23.88,29.021 -37.413,12.398 -73.589,27.87 -109.795,43.293 -5.467,2.328 -13.154,1.009 -15.2,9.083 21.724,-8.362 43.446,-16.736 65.183,-25.069 1.516,-0.581 3.149,-0.852 4.728,-1.267 C -70.803,18.293 -48.772,9.214 -26.533,0.679 -17.984,-2.603 -8.883,-0.973 0,0" /></g><g
           transform="translate(95.0176,260.9473)"
           id="g176"><path
             id="path178"
             style="fill:#797363;fill-opacity:1;fill-rule:evenodd;stroke:none"
             d="M 0,0 C 3.752,-1.916 1.77,-4.623 0.825,-7.04 0.573,-7.687 -0.903,-8.538 -1.317,-8.324 -3.301,-7.3 -2.095,-5.478 -2.056,-3.944 -1.371,-2.629 -0.686,-1.314 0,0" /></g><g
           transform="translate(62.022,243.0044)"
           id="g180"><path
             id="path182"
             style="fill:#834c24;fill-opacity:1;fill-rule:evenodd;stroke:none"
             d="M 0,0 C 0.704,0.922 1.407,1.843 2.111,2.765 2.175,4.646 3.466,5.416 5,5.971 c 2.267,0.57 4.571,0.134 6.107,-1.372 5.817,-5.704 13.394,-8.585 20.048,-12.932 2.384,-2.015 2.824,-4.987 3.782,-7.706 0.016,-0.36 0.031,-0.72 0.046,-1.08 -0.588,-7.413 -7.506,-11.385 -14.501,-7.208 -7.25,4.331 -14.513,8.489 -22.171,12.04 -2.93,1.359 -3.415,4.209 -2.359,7.225 C -2.699,-3.375 -1.35,-1.687 0,0" /></g><g
           transform="translate(57.9736,237.9419)"
           id="g184"><path
             id="path186"
             style="fill:#593021;fill-opacity:1;fill-rule:evenodd;stroke:none"
             d="m 0,0 c 0.492,-1.876 0.542,-5.092 1.544,-5.422 9.566,-3.157 17.381,-9.734 26.573,-13.375 5.469,-2.165 8.732,2.087 10.914,6.741 1.295,-0.389 2.589,-0.777 3.883,-1.166 -1.397,-3.986 -2.36,-8.201 -4.317,-11.889 -1.866,-3.519 -5.177,-1.978 -7.874,-0.637 -4.3,2.138 -8.505,4.465 -12.75,6.711 -4.872,-0.169 -8.494,1.909 -10.941,6.094 -2.004,1.669 -4.008,3.337 -6.011,5.006 C -0.725,-5.471 -2.26,-2.979 0,0" /></g><g
           transform="translate(57.002,211.0229)"
           id="g188"><path
             id="path190"
             style="fill:#182834;fill-opacity:1;fill-rule:evenodd;stroke:none"
             d="m 0,0 c 4.034,-14.876 1.114,-30.061 1.996,-45.077 -2.161,4.091 -0.755,8.474 -0.951,12.711 C 0.547,-21.584 0.33,-10.79 0,0" /></g><g
           transform="translate(58.999,164.0259)"
           id="g192"><path
             id="path194"
             style="fill:#182834;fill-opacity:1;fill-rule:evenodd;stroke:none"
             d="M 0,0 C 1.613,-4.027 3.065,-8.054 0.006,-12.083 0.004,-8.056 0.002,-4.028 0,0" /></g><g
           transform="translate(359.9561,184.9751)"
           id="g196"><path
             id="path198"
             style="fill:#1e2931;fill-opacity:1;fill-rule:evenodd;stroke:none"
             d="m 0,0 c -1.563,-19.565 -1.512,-39.124 -0.103,-58.704 0.218,-3.03 -0.668,-6.23 -1.547,-9.203 -0.333,-1.127 -2.997,-2.682 -3.062,-2.614 -8.874,9.545 -16.384,-1.665 -24.612,-1.813 -6.426,-0.116 -12.806,-2.951 -19.201,-4.59 -1.835,-0.47 -4.608,-0.337 -4.058,-3.166 0.505,-2.601 3.237,-2.133 5.049,-1.804 4.066,0.74 8.038,1.993 12.086,2.862 1.346,0.289 2.807,0.044 4.216,0.043 -1.237,-0.707 -2.397,-1.782 -3.724,-2.061 -8.077,-1.7 -16.168,-3.368 -24.307,-4.727 -3.407,-0.57 -4.904,1.797 -4.692,4.912 1.657,24.275 3.375,48.545 5.201,72.806 0.093,1.229 1.452,3.404 2.088,3.356 1.891,-0.143 1.752,-2.123 1.639,-3.569 -0.359,-4.561 1.774,-4.03 5.191,-3.275 9.672,2.136 19.445,3.843 29.218,5.481 2.695,0.452 5.354,-0.087 3.677,-4.06 -0.147,-2.46 -2.154,-2.81 -3.887,-3.134 -8.312,-1.554 -16.54,-3.517 -24.866,-4.985 -2.109,-0.372 -4.296,-0.708 -6.323,0.479 -3.052,0.74 -4.642,-1.478 -3.138,-3.262 1.99,-2.36 -1.424,-8.772 5.368,-7.39 9.243,1.88 18.506,3.666 27.73,5.632 1.849,0.394 3.628,1.215 4.943,-0.713 1.577,-2.314 -1.702,-2.836 -1.864,-4.553 -1.869,-3.422 -5.545,-2.591 -8.413,-3.263 -5.941,-1.393 -11.909,-2.766 -17.969,-3.642 -1.999,-0.289 -3.94,-0.821 -5.565,0.91 -1.763,-0.19 -5.665,-0.558 -3.325,-2.418 3.257,-2.589 -4.183,-10.526 4.913,-8.792 9.403,1.794 18.736,4.23 28.222,5.236 7.558,0.802 6.656,6.256 6.953,10.593 0.89,13.009 0.669,26.089 3.087,38.991 0.533,2.842 -0.102,5.659 -2.86,7.444 -0.018,0.165 -0.1,0.448 -0.044,0.479 4.478,2.458 8.988,4.83 14.342,4.532 C 0.717,21.554 0.957,21.039 1.096,20.473 0.822,15.981 1.352,11.522 1.579,7.049 1.703,4.619 2.06,2 0,0" /></g><g
           transform="translate(359.8701,207.0063)"
           id="g200"><path
             id="path202"
             style="fill:#733923;fill-opacity:1;fill-rule:evenodd;stroke:none"
             d="m 0,0 c -4.616,-1.674 -9.234,-3.349 -13.85,-5.024 -11.555,-2.291 -23.11,-4.586 -34.668,-6.873 -6.557,-1.298 -9.431,3.264 -12.335,7.771 -0.678,1.067 -1.357,2.137 -2.037,3.206 0.016,0.276 0.002,0.55 -0.037,0.823 -0.631,0.967 -0.677,1.976 -0.221,3.02 1.04,0.613 2.118,0.268 2.694,-0.492 4.872,-6.42 11.588,-4.857 17.261,-2.805 11.546,4.176 23.333,6.211 35.472,6.8 4.774,0.232 9.132,1.425 12.71,4.778 C 8.565,9.288 7.272,6.531 5.846,4.2 4.57,2.118 2.714,0.33 0,0" /></g><g
           transform="translate(359.9561,184.9751)"
           id="g204"><path
             id="path206"
             style="fill:#233b47;fill-opacity:1;fill-rule:evenodd;stroke:none"
             d="m 0,0 c 0.914,6.984 -2.05,13.972 0.018,20.956 3.366,-0.07 5.349,3.906 8.978,3.066 C 8.994,23.346 8.992,22.669 8.991,21.993 6.957,19.487 7.022,16.509 6.982,13.512 6.772,-2.36 8.042,-18.301 4.909,-34.033 4.62,-35.489 3.437,-36.767 2.67,-38.128 2.113,-36.693 1.128,-35.276 1.069,-33.822 0.611,-22.552 0.333,-11.274 0,0" /></g><g
           transform="translate(308.9951,184.958)"
           id="g208"><path
             id="path210"
             style="fill:#1e2931;fill-opacity:1;fill-rule:evenodd;stroke:none"
             d="m 0,0 c -6.086,4.438 0.746,5.352 2.19,5.678 9.34,2.109 18.802,3.703 28.257,5.259 2.94,0.483 5.124,-0.417 3.621,-4.159 C 33.732,4.738 31.991,4.151 30.453,3.807 21.718,1.852 12.902,0.286 4.088,-1.273 2.575,-1.541 1.088,-1.302 0,0" /></g><g
           transform="translate(308.9951,184.958)"
           id="g212"><path
             id="path214"
             style="fill:#4a6d7e;fill-opacity:1;fill-rule:evenodd;stroke:none"
             d="M 0,0 C 11.558,1.248 23.047,2.84 34.068,6.779 36.099,4.265 36.158,3.638 32.994,2.957 22.784,0.761 12.503,-1.115 2.224,-2.974 0.1,-3.358 -1.676,-2.796 0,0" /></g><g
           transform="translate(307.9395,167.2095)"
           id="g216"><path
             id="path218"
             style="fill:#466678;fill-opacity:1;fill-rule:evenodd;stroke:none"
             d="M 0,0 C 11.709,2.464 23.762,3.356 35.075,7.64 38.306,6.389 35.949,4.781 34.89,4.451 24.201,1.118 13.265,-1.125 2.104,-2.123 1.471,-2.179 0.705,-0.742 0,0" /></g><g
           transform="translate(309.0312,150.9277)"
           id="g220"><path
             id="path222"
             style="fill:#3e5d6e;fill-opacity:1;fill-rule:evenodd;stroke:none"
             d="M 0,0 C 10.649,1.999 21.299,3.997 31.947,5.996 35.114,4.034 32.678,3.355 31.101,3.018 21.493,0.963 11.866,-1.011 2.218,-2.866 0.189,-3.256 -1.729,-2.86 0,0" /></g><g
           transform="translate(182.0405,34.0186)"
           id="g224"><path
             id="path226"
             style="fill:#7a746e;fill-opacity:1;fill-rule:evenodd;stroke:none"
             d="m 0,0 c -0.565,-3.595 -3.378,-3.207 -5.753,-2.95 -3.674,0.396 -7.306,1.184 -10.938,1.896 -0.062,0.013 -0.115,1.526 0.198,1.711 0.758,0.447 1.738,0.724 2.624,0.714 C -9.928,1.329 -5.988,1.162 -2.047,1.041 -1.365,0.694 -0.682,0.347 0,0" /></g><g
           transform="translate(178.0273,326.9766)"
           id="g228"><path
             id="path230"
             style="fill:#f8f9f9;fill-opacity:1;fill-rule:evenodd;stroke:none"
             d="m 0,0 c 4.966,10.027 9.933,20.054 14.899,30.081 0.374,3.21 3.048,2.954 5.171,3.269 5.148,0.763 9.364,2.817 11.742,7.724 3.325,6.489 6.734,12.907 11.943,18.186 1.802,1.827 0.266,4.552 1.207,6.7 -2.239,2.854 -1.562,3.95 2.067,3.93 9.617,-0.052 19.235,0.091 28.852,0.157 0.339,0.081 0.838,0.181 0.94,-0.007 3.935,-7.192 10.688,-6.754 17.395,-6.483 1.327,0.054 2.662,0.111 3.991,-0.065 5.583,0.367 11.113,2.43 16.764,0.522 12.683,0.626 24.281,6.176 36.684,8.073 3.907,2.414 7.256,-0.272 10.804,-1.174 0.745,-0.4 1.211,-1.074 1.687,-1.737 1.605,-0.39 3.21,-0.78 4.815,-1.17 2.241,0.752 3.95,0.204 4.963,-2.038 4.785,-2.029 10.334,-4.698 10.531,-9.949 C 184.87,45.008 182.166,35.386 170.84,29.205 152.738,19.325 133.017,15.817 113.26,12.381 85.262,7.512 57.166,3.159 29.026,-0.816 c -6.373,-0.901 -9.617,-4.04 -12.079,-9.152 0,0 -0.003,-0.043 -0.003,-0.043 -0.548,-0.474 -1.21,-0.633 -1.815,-0.276 C 10.744,-7.702 6.144,-5.499 1.823,-2.806 0.831,-2.187 0.109,-1.258 0,0" /></g><g
           transform="translate(113.9854,404.7563)"
           id="g232"><path
             id="path234"
             style="fill:#f5f4f4;fill-opacity:1;fill-rule:evenodd;stroke:none"
             d="m 0,0 c 2.326,0.743 4.652,1.486 6.978,2.229 3.354,2.808 6.67,3.193 9.928,-0.155 10.306,0.252 13.202,-12.632 23.166,-13.063 2.254,-0.097 4.489,-0.615 6.733,-0.939 4.545,-1.795 9.272,-2.085 14.08,-1.707 6.662,1.138 13.146,1.245 18.842,-3.236 -0.198,-0.678 -0.394,-1.356 -0.591,-2.034 0.622,-2.154 0.359,-4.309 0.025,-6.464 -1.467,-3.902 -3.72,-7.438 -5.338,-11.263 -0.797,-1.887 -2.405,-3.749 -1.175,-6.074 0.421,-0.523 0.874,-1.013 1.361,-1.477 0.71,-0.633 1.43,-1.257 1.686,-2.232 -0.157,-2.73 -1.138,-5.265 -2.761,-7.324 -4.058,-5.149 -5.877,-11.419 -8.969,-17.04 0,0 -0.005,0.002 -0.005,0.002 -12.759,-14.906 -26.946,-8.016 -41.393,-3.174 -14.605,4.896 -27.998,11.909 -40.73,20.388 -0.408,0.272 -1.168,0.698 -1.119,0.876 3.212,11.843 -13.406,21.555 -3.508,34.221 C -16.566,-10.501 -8.52,-5.013 0,0" /></g><g
           transform="translate(186.9932,359.9893)"
           id="g236"><path
             id="path238"
             style="fill:#42545d;fill-opacity:1;fill-rule:evenodd;stroke:none"
             d="m 0,0 c -0.34,0.316 -0.681,0.632 -1.021,0.948 -1.321,1.801 0.235,2.983 0.871,4.427 1.962,4.462 5.109,8.473 5.293,13.626 0.043,2.328 -0.797,4.783 0.985,6.861 4.459,-0.696 0.635,-8.723 6.913,-7.81 3.445,2.132 7.085,2.251 10.853,1.047 6.39,0.622 7.903,5.932 9.976,10.582 0.559,1.254 0.007,3.065 2.126,3.267 1.025,-3.5 1.806,-5.999 -2.056,-9.427 C 29.518,19.593 27.263,13.225 24.066,7.916 23.812,7.704 23.541,7.343 23.27,7.353 18.322,7.532 14.467,5.988 12.452,1.038 12.042,0.03 10.795,-0.791 9.538,-0.271 7.881,0.414 8.436,1.894 8.684,3.166 8.843,3.975 9.199,4.737 9.387,5.542 9.537,6.188 9.771,7.004 9.19,7.402 8.326,7.996 7.646,7.236 7.078,6.668 6.017,5.608 5.375,4.237 4.514,3.027 3.403,1.467 2.563,-0.575 0,0" /></g><g
           transform="translate(210.8867,379.0884)"
           id="g240"><path
             id="path242"
             style="fill:#a0b0b8;fill-opacity:1;fill-rule:evenodd;stroke:none"
             d="M 0,0 C -3.618,-0.35 -7.235,-0.699 -10.853,-1.048 -15.913,12.083 -9.558,19.924 4.413,17.991 7.595,17.551 7.425,15.949 6.49,13.875 4.392,9.221 2.171,4.622 0,0" /></g><g
           transform="translate(193.7119,387.8853)"
           id="g244"><path
             id="path246"
             style="fill:#a1aab2;fill-opacity:1;fill-rule:evenodd;stroke:none"
             d="m 0,0 c -6.28,1.078 -12.561,2.157 -18.841,3.235 -1.448,3.741 0.538,5.712 3.788,6.471 3.173,0.74 6.485,1.27 9.728,1.233 C -1.438,10.895 2.44,10.153 6.323,9.713 4.215,6.475 2.108,3.238 0,0" /></g><g
           transform="translate(276.1143,389.0811)"
           id="g248"><path
             id="path250"
             style="fill:#d0d2d6;fill-opacity:1;fill-rule:evenodd;stroke:none"
             d="m 0,0 c -5.289,0.103 -10.621,-0.171 -15.854,0.432 -3.951,0.455 -4.889,4.425 -6.352,7.51 7.34,0.624 14.679,1.249 22.018,1.873 C 2.028,6.585 3.82,3.347 0,0" /></g><g
           transform="translate(276.1143,389.0811)"
           id="g252"><path
             id="path254"
             style="fill:#a6aab0;fill-opacity:1;fill-rule:evenodd;stroke:none"
             d="m 0,0 c 2.066,3.313 -0.468,6.537 -0.188,9.815 4.789,1.022 9.472,2.694 14.506,0.827 C 19.319,8.787 24.673,7.377 16.884,1.91 11.257,1.273 5.628,0.636 0,0" /></g><g
           transform="translate(340.7715,396.9009)"
           id="g256"><path
             id="path258"
             style="fill:#dee6e9;fill-opacity:1;fill-rule:evenodd;stroke:none"
             d="m 0,0 c -3.695,0.721 -7.392,1.442 -11.088,2.163 -1.452,2.59 -4.349,1.992 -6.535,2.958 -1.741,0.768 -4.836,0.143 -3.798,3.731 0.933,3.219 3.093,3.416 5.862,2.515 C -9.718,9.466 -3.845,7.667 2.015,5.825 4.368,2.837 2.568,1.286 0,0" /></g><g
           transform="translate(351.9512,392.9448)"
           id="g260"><path
             id="path262"
             style="fill:#404e58;fill-opacity:1;fill-rule:evenodd;stroke:none"
             d="m 0,0 c -1.654,0.679 -3.31,1.358 -4.963,2.038 0.995,2.696 1.991,5.393 2.987,8.089 C 1.306,8.238 2.895,5.253 3.033,1.615 3.108,-0.351 1.169,0.278 0,0" /></g><g
           transform="translate(340.7715,396.9009)"
           id="g264"><path
             id="path266"
             style="fill:#a3afb4;fill-opacity:1;fill-rule:evenodd;stroke:none"
             d="M 0,0 C 1.305,1.723 2.716,3.409 2.015,5.825 3.302,5.918 4.801,6.153 5.063,4.404 5.481,1.619 2.942,0.75 1.401,-0.748 0.935,-0.499 0.468,-0.249 0,0" /></g><g
           transform="translate(165.9077,311.9609)"
           id="g268"><path
             id="path270"
             style="fill:#666159;fill-opacity:1;fill-rule:evenodd;stroke:none"
             d="m 0,0 c 0.047,1.917 0.685,3.569 2.927,2.772 3.834,-1.363 4.975,-4.819 5.044,-8.385 0.196,-10.12 0.099,-20.245 0.118,-30.369 2.056,-10.629 1.527,-21.4 1.765,-32.128 0.085,-3.809 -0.12,-7.626 0.343,-11.416 -0.084,-8.712 0.737,-17.103 5.488,-24.9 2.688,-4.41 0.816,-6.259 -5.831,-6.776 -0.823,-0.197 -1.647,-0.369 -2.501,-0.22 -0.559,0.185 -1.018,0.511 -1.384,0.971 -0.295,0.508 -0.435,1.057 -0.433,1.643 0.386,12.308 -0.322,24.579 -1.542,36.814 -0.531,5.317 -0.422,10.617 -0.418,15.93 0,0.614 -0.078,1.235 0.566,1.613 -1.11,-0.12 -0.547,-0.964 -0.559,-1.457 -0.251,-11.126 -0.512,-22.257 -1.897,-33.309 -0.87,-6.939 -1.473,-13.846 -0.409,-20.81 -3.275,-2.688 -6.753,-0.723 -10.158,-0.447 -2.845,0.302 -6.077,-0.631 -8.036,2.507 -0.666,0.651 -1.334,1.302 -2.001,1.952 0.201,0.624 0.304,1.74 0.617,1.803 15.287,3.054 11.799,16.034 13.12,25.848 C -1.686,-52.385 -0.076,-26.23 0,0" /></g><g
           transform="translate(67.061,248.1064)"
           id="g272"><path
             id="path274"
             style="fill:#8f8476;fill-opacity:1;fill-rule:evenodd;stroke:none"
             d="m 0,0 c -0.977,-0.778 -1.954,-1.557 -2.929,-2.337 -8.854,-4.189 -13.651,2.439 -19.154,7.184 1.557,5.226 6.414,6.586 10.226,5.669 C -5.325,8.943 1.561,6.985 5.937,0.943 4.184,-0.786 1.836,1.21 0,0" /></g><g
           transform="translate(67.061,248.1064)"
           id="g276"><path
             id="path278"
             style="fill:#a07f53;fill-opacity:1;fill-rule:evenodd;stroke:none"
             d="m 0,0 c 1.979,0.314 3.958,0.628 5.937,0.943 4.336,-2.012 8.673,-4.026 13.009,-6.038 3.811,-1.88 6.841,-4.36 6.957,-9.073 -7.295,3.345 -14.652,6.51 -20.37,12.537 C 4.388,-0.424 1.879,-0.51 0,0" /></g><g
           transform="translate(110.7734,227.7676)"
           id="g280"><path
             id="path282"
             style="fill:#797363;fill-opacity:1;fill-rule:evenodd;stroke:none"
             d="M 0,0 C 6.254,-0.654 10.484,-2.877 12.58,-7.538 13.248,-9.024 10.537,-9.042 9.604,-8.613 5.38,-6.668 0.358,-5.877 -2,-1.121 -2.024,-1.071 -0.073,-0.041 0,0" /></g><g
           transform="translate(92.9644,233.9385)"
           id="g284"><path
             id="path286"
             style="fill:#797363;fill-opacity:1;fill-rule:evenodd;stroke:none"
             d="M 0,0 C -2.319,3.024 -4.639,6.048 -6.958,9.072 -0.739,10.855 5.559,1.629 3.995,-6.973 2.664,-4.649 1.332,-2.324 0,0" /></g><g
           transform="translate(291.752,215.0103)"
           id="g288"><path
             id="path290"
             style="fill:#8d847a;fill-opacity:1;fill-rule:evenodd;stroke:none"
             d="m 0,0 c -0.93,-0.022 -1.86,-0.045 -2.79,-0.068 -1.208,-0.749 -2.444,-1.176 -3.793,-0.336 -1.06,2.05 0.727,2.72 1.883,3.356 4.87,2.679 8.971,6.331 12.915,10.138 4,3.863 8.56,6.141 14.131,6.635 3.803,0.336 7.519,1.422 11.349,1.7 11.15,0.531 21.787,4.15 32.868,5.347 6.6,0.713 12.482,0.566 18.183,-2.925 1.826,-1.118 3.788,-2.102 5.948,-2.522 2.818,-0.864 5.599,-0.269 8.403,0.132 21.42,3.055 42.52,7.91 63.88,11.302 2.781,0.442 5.608,1.218 8.107,-0.905 0,0 0.185,0.144 0.185,0.144 -0.705,-0.986 -1.41,-1.972 -2.115,-2.958 -1.365,-0.891 -2.544,-2.087 -4.165,-2.561 -9.763,-3.3 -19.967,-4.694 -30.009,-6.733 -13.456,-2.733 -26.914,-5.469 -40.36,-8.245 -6.125,-1.263 -12.014,-2.418 -17.788,1.039 -1.607,0.961 -3.478,1.026 -5.322,0.963 -1.083,0.01 -2.168,0.023 -3.251,0.002 C 63.183,14.574 58.306,12.791 53.33,12.439 43.544,10.996 33.715,9.756 24.041,7.716 19.64,6.788 15.113,6.977 10.788,5.677 9.52,5.296 8.149,5.287 7.284,4.087 6.302,2.795 5.284,1.537 3.582,1.155 2.385,0.793 1.238,0.252 0,0" /></g><g
           transform="translate(456.9404,242.9492)"
           id="g292"><path
             id="path294"
             style="fill:#3a3f46;fill-opacity:1;fill-rule:evenodd;stroke:none"
             d="m 0,0 c 1.321,0.367 2.644,0.734 3.966,1.101 0.118,-11.089 -7.533,-13.184 -16.345,-15.128 -18.061,-3.983 -35.98,-8.63 -53.886,-13.281 -5.448,-1.415 -9.084,2.1 -13.473,3.678 -3.999,1.437 -7.261,5.346 -12.196,3.701 -2.163,-0.758 -2.659,1.464 -3.983,2.218 -1.032,1.394 -1.945,2.815 -0.899,4.614 0.926,-0.038 1.853,-0.076 2.78,-0.114 3.391,-1.774 7.023,-2.996 10.5,-4.568 1.622,-0.732 3.166,-0.572 4.857,-0.349 10.209,1.348 20.034,4.425 30.072,6.525 13.925,2.913 27.788,6.135 41.783,8.712 C -4.308,-2.429 -2.074,-1.437 0,0" /></g><g
           transform="translate(362.0283,226.0474)"
           id="g296"><path
             id="path298"
             style="fill:#495157;fill-opacity:1;fill-rule:evenodd;stroke:none"
             d="m 0,0 c 0.993,-1.009 1.985,-2.019 2.979,-3.027 1.275,-4.686 4.623,-8.789 3.945,-14.023 -3.353,0.031 -4.419,-6.636 -8.979,-3.066 -0.034,0.358 -0.067,0.716 -0.102,1.075 1.873,3.544 8.386,4.874 5.172,10.845 C 0.584,-5.989 -1.656,-3.711 0,0" /></g><g
           transform="translate(203.9521,315.9375)"
           id="g300"><path
             id="path302"
             style="fill:#8c8478;fill-opacity:1;fill-rule:evenodd;stroke:none"
             d="m 0,0 c -7.048,-0.688 -7.081,-4.296 -6.28,-10.651 2.15,-17.068 -4.287,-33.649 -4.453,-50.706 -0.027,-2.818 -0.795,-7.186 -4.178,-6.714 -2.106,0.295 -3.411,4.605 -4.137,7.79 -4.095,17.966 -5.479,36.24 -5.619,54.551 -0.038,4.806 -5.757,3.712 -5.295,7.666 6.795,-4.172 14.274,-2.564 21.555,-2.495 C -5.604,-0.532 -2.802,-0.195 0,0" /></g><g
           transform="translate(186.9932,359.9893)"
           id="g304"><path
             id="path306"
             style="fill:#81919a;fill-opacity:1;fill-rule:evenodd;stroke:none"
             d="M 0,0 C 1.799,2.29 3.786,4.461 5.339,6.907 6.706,9.059 8.27,11.013 10.797,9.702 13.38,8.362 10.763,6.254 10.691,4.482 10.639,3.165 10.167,1.865 9.882,0.559 c 0.933,1.069 2.428,2.01 2.707,3.23 1.723,7.532 7.224,4 11.477,4.127 C 21.736,-1.908 11.863,0.876 5.933,-2.932 L 3.997,-1.105 C 3.329,-1.632 2.644,-1.639 1.944,-1.171 1.296,-0.781 0.648,-0.391 0,0" /></g><g
           transform="translate(178.0273,326.9766)"
           id="g308"><path
             id="path310"
             style="fill:#dddddf;fill-opacity:1;fill-rule:evenodd;stroke:none"
             d="M 0,0 C 5.648,-3.337 11.296,-6.674 16.944,-10.011 12.265,-11.68 7.573,-12.124 3.841,-8.25 1.742,-6.072 -2.448,-4.449 0,0" /></g><g
           transform="translate(188.9375,358.8179)"
           id="g312"><path
             id="path314"
             style="fill:#dddddf;fill-opacity:1;fill-rule:evenodd;stroke:none"
             d="M 0,0 C 0.684,0.022 1.368,0.044 2.052,0.066 -0.568,-9.14 -6.175,-16.782 -10.987,-24.841 -9.761,-15.483 -2.13,-8.958 0,0" /></g><g
           transform="translate(155.082,31.292)"
           id="g316"><path
             id="path318"
             style="fill:#413d39;fill-opacity:1;fill-rule:evenodd;stroke:none"
             d="M 0,0 C -0.312,3.729 0.364,5.876 3.879,5.686 5.197,5.614 7.112,5.667 6.56,3.784 5.528,0.266 3.958,-3.094 2.612,-6.52 -0.564,-4.897 1.232,-1.45 0,0" /></g><g
           transform="translate(138.9771,24.0029)"
           id="g320"><path
             id="path322"
             style="fill:#4d5050;fill-opacity:1;fill-rule:evenodd;stroke:none"
             d="M 0,0 C -1.329,6.328 -2.659,12.656 -3.989,18.984 0.199,13.257 -0.912,6.416 0,0" /></g><g
           transform="translate(65.0059,224.9985)"
           id="g324"><path
             id="path326"
             style="fill:#182834;fill-opacity:1;fill-rule:evenodd;stroke:none"
             d="m 0,0 c 3.647,-2.03 7.295,-4.061 10.941,-6.092 -1.304,-3.076 -1.979,-5.068 2.778,-6.305 5.172,-1.346 9.878,-4.533 14.727,-7.034 1.783,-0.918 1.949,-2.761 1.266,-4.36 -0.809,-1.894 -2.506,-1.269 -3.847,-0.615 -2.827,1.376 -5.475,3.756 -8.396,4.12 -2.759,0.345 -5.113,6.276 -6.977,2.099 -1.19,-2.664 -3.022,-9.396 5.002,-10.527 4.326,-0.61 8.242,-4.102 12.354,-6.273 2.665,-1.407 2.887,-4.003 1.703,-5.965 -1.335,-2.212 -3.178,-0.011 -4.686,0.69 -2.093,0.973 -4.044,2.293 -6.191,3.101 -2.496,0.94 -4.108,4.238 -7.473,2.86 2.715,-3.101 -0.722,-8.852 5.239,-10.873 4.152,-1.408 7.845,-4.24 11.643,-6.598 1.919,-1.193 2.659,-3.353 1.519,-5.218 -1.251,-2.045 -2.963,-0.255 -4.331,0.402 -1.638,0.787 -3.084,1.984 -4.739,2.724 -2.623,1.172 -5.35,2.11 -8.033,3.147 3.587,-2.974 -2.029,-9.358 4.626,-11.573 4,-1.332 7.472,-4.239 11.204,-6.397 1.483,-0.857 3.223,-1.698 2.241,-3.749 -1.137,-2.375 -3.038,-1.427 -4.667,-0.496 -3.743,2.14 -7.43,4.376 -11.164,6.532 -1.915,1.106 -3.535,1.332 -3.728,-1.62 -0.125,-0.109 -0.28,-0.198 -0.372,-0.33 -2.661,-3.79 -2.13,-12.605 -7.74,-10.789 -6.263,2.027 -5.537,10.749 -5.354,16.783 0.484,15.943 0.428,31.85 0.058,47.793 C -2.506,-9.887 -4.074,-4.273 0,0" /></g><g
           transform="translate(130.8916,406.8306)"
           id="g328"><path
             id="path330"
             style="fill:#7f878e;fill-opacity:1;fill-rule:evenodd;stroke:none"
             d="M 0,0 -9.929,0.155 C -8.099,6.276 -2.288,5.026 2.002,6.504 4.292,7.293 6.755,7.577 9.14,8.088 10.018,6.72 10.924,6.145 11.918,7.987 15.63,6.29 13.852,3.426 12.909,1.312 11.229,-2.457 10.607,2.081 9.188,2.124 5.875,2.224 2.71,2.27 0,0" /></g><g
           transform="translate(142.8101,414.8179)"
           id="g332"><path
             id="path334"
             style="fill:#d7dcdd;fill-opacity:1;fill-rule:evenodd;stroke:none"
             d="M 0,0 C 0.152,-1.567 1.127,-4.021 -1.121,-4.122 -3.987,-4.251 -2.526,-1.479 -2.778,0.101 -1.852,0.067 -0.926,0.034 0,0" /></g><g
           transform="translate(172.9321,200.9141)"
           id="g336"><path
             id="path338"
             style="fill:#716d60;fill-opacity:1;fill-rule:evenodd;stroke:none"
             d="m 0,0 c 0.682,0.352 1.362,0.704 2.044,1.056 1.18,0.067 2.27,-0.6 3.438,-0.479 1.63,0.168 3.598,0.016 4.577,1.45 1.075,1.575 -0.794,2.64 -1.453,3.885 -3.448,6.52 -5.994,13.292 -6.07,20.8 -0.011,1.12 0.387,2.336 -0.492,3.342 -2.253,14.961 -0.397,30.012 -0.98,45.01 5.065,-13.914 2.639,-28.875 6.004,-43.019 1.49,-6.262 3.025,-12.529 4.949,-18.667 0.913,-2.917 3.626,-4.211 6.722,-4.282 3.093,-0.071 4.105,2.518 4.475,4.593 1.506,8.433 2.644,16.935 3.81,25.425 0.782,5.698 0.521,11.98 9.721,9.221 2.05,-0.615 5.039,1.165 7.349,2.33 3.27,1.648 5.089,0.433 8.21,-1.235 3.82,-2.04 8.682,-6.818 14.123,-1.586 5.895,5.671 21.35,2.265 24.773,-5.157 0.276,-0.6 1.328,-1.444 1.669,-1.306 1.325,0.536 3.029,1.121 3.669,2.224 8.618,14.853 8.504,14.791 21.187,3.427 1.813,-1.624 3.563,-6.832 6.512,-3.461 2.794,3.194 -0.465,6.93 -3.622,9.044 -3.394,2.273 -3.016,2.15 0.123,5.413 10.543,10.96 22.012,2.198 32.885,2.958 2.132,0.149 4.627,-0.986 6.441,0.63 7.282,6.483 20.196,3.727 24.791,11.91 4.782,8.513 17.108,5.87 19.254,16.013 0.057,0.268 0.457,0.662 0.7,0.663 11.834,0.092 18.672,11.746 30.085,12.933 6.45,0.671 11.703,3.515 14.155,10.012 1.778,4.707 5.485,5.303 9.767,4.775 1.201,-0.148 2.634,-1.451 3.337,0.461 0.11,0.3 -1.474,1.289 -2.335,1.868 -5.087,3.42 -10.844,4.532 -16.831,4.827 -1.419,2.052 -1.94,3.908 1.009,5.125 1.855,0.766 1.46,2.421 1.281,3.843 -0.196,1.561 -1.462,1.612 -2.679,1.442 -1.673,-0.233 -2.585,-1.213 -2.957,-2.89 -0.747,-3.373 0.443,-5.808 3.343,-7.522 -3.105,-4.517 -7.75,-3.131 -11.862,-2.701 -2.362,0.246 -3.454,3.04 -2.954,5.127 0.975,4.071 -0.321,9.071 5.069,11.575 2.991,1.389 5.185,4.423 8.784,4.91 15.089,2.134 30.171,4.317 45.271,6.367 3.343,0.453 5.883,1.866 7.666,4.692 -0.314,-8.332 -0.628,-16.664 -0.944,-24.996 0.877,-12.673 -2.37,-25.144 -1.94,-37.772 0.299,-8.819 0.072,-17.597 -0.587,-26.378 -0.529,-7.028 -3,-11.35 -12.665,-11.996 -9.62,-0.643 -19.049,-2.953 -28.782,-2.604 -7.365,0.264 -13.946,-3.169 -20.23,-6.559 -5.308,-2.863 -10.497,-3.994 -16.286,-2.161 -2.567,0.813 -5.254,0.832 -7.925,0.85 -1.999,0.013 -4.143,-0.337 -5.953,0.445 -11.77,5.087 -23.313,1.478 -34.795,-0.968 C 159.3,41.725 153.84,40.612 148.137,40.264 137.436,39.61 127.345,36.657 119.43,28.989 110.305,20.15 99.453,16.816 87.042,17.41 80.629,17.717 74.421,16.652 68.522,14.02 66.525,13.128 64.432,12.61 62.245,12.48 52.143,11.879 42.766,8.238 33.169,5.524 32.241,5.262 30.871,4.979 30.979,3.871 31.146,2.164 33.457,2.42 34.207,1.065 33.62,-1.739 31.128,-1.634 29.157,-2.033 20.455,-3.792 11.658,-2.233 2.908,-2.58 1.376,-2.641 -0.08,-2.04 0,0" /></g><g
           transform="translate(207.0225,201.9482)"
           id="g340"><path
             id="path342"
             style="fill:#68655d;fill-opacity:1;fill-rule:evenodd;stroke:none"
             d="m 0,0 c -2.36,0.553 -6.25,-1.45 -6.656,2.333 -0.37,3.446 3.457,3.241 5.912,3.938 22.063,6.265 44.213,11.928 67.325,12.868 7.816,0.318 13.173,6.08 18.596,10.843 9.022,7.927 19.78,9.884 31.176,11.182 11.958,1.362 23.77,3.965 35.677,5.818 8.324,1.296 16.064,-2.689 24.201,-3.604 8.464,-0.951 15.33,-0.467 22.567,3.657 12.459,7.101 26.696,5.454 40.166,6.696 14.058,1.295 18.142,3.994 17.881,18.256 -0.326,17.792 0.602,35.507 2.11,53.21 0.109,1.292 0.636,2.547 0.969,3.819 2.031,-8.526 0.658,-17.024 0.083,-25.581 -0.985,-14.643 -1.705,-29.318 -1.928,-43.989 -0.076,-5.062 -7.545,-8.817 -2.265,-14.529 -16.516,-1.384 -32.517,-5.842 -48.843,-8.215 -10.628,-1.545 -21.038,-5.601 -32.077,-3.772 -3.383,2.694 -7.348,4.437 -10.973,6.733 -1.045,0.662 -2.112,0.99 -3.281,0.815 C 146.353,38.341 132.039,36.349 117.949,33.073 100.674,34.261 90.837,20.542 77.881,13.075 76.33,11.206 74.034,11.26 71.953,10.861 50.382,6.719 28.727,3.043 7.088,-0.723 4.695,-1.139 2.169,-2.108 0,0" /></g><g
           transform="translate(207.0225,201.9482)"
           id="g344"><path
             id="path346"
             style="fill:#8c8d8d;fill-opacity:1;fill-rule:evenodd;stroke:none"
             d="m 0,0 c 23.981,4.177 47.961,8.364 71.948,12.51 1.952,0.337 3.954,0.383 5.933,0.564 1.352,-0.026 2.706,-0.053 4.058,-0.08 C 81.55,11.262 77.917,10.917 79.878,8.179 53.713,3.354 27.536,-1.407 1.398,-6.374 c -3.814,-0.725 -8.071,0.199 -11.403,-2.651 -13.938,1.004 -27.872,2.06 -41.817,2.967 -2.431,0.159 -4.126,1.022 -5.25,3.117 -0.955,2.323 0.187,3.386 2.331,3.311 1.575,-0.056 3.131,-0.52 4.701,0.022 5.232,-1.525 10.69,-0.52 15.98,-1.409 0,0 -0.029,-0.016 -0.03,-0.017 C -22.674,-2.423 -11.266,-3.556 0,0" /></g><g
           transform="translate(157,201.8643)"
           id="g348"><path
             id="path350"
             style="fill:#80776b;fill-opacity:1;fill-rule:evenodd;stroke:none"
             d="M 0,0 C -1.638,-2.708 -6.479,2.483 -7.05,-2.857 -8.286,-1.371 -9.98,0.026 -8.009,2.129 -5.354,1.785 -2.698,1.44 -0.042,1.095 0.571,0.753 0.585,0.389 0,0" /></g><g
           transform="translate(291.752,215.0103)"
           id="g352"><path
             id="path354"
             style="fill:#645851;fill-opacity:1;fill-rule:evenodd;stroke:none"
             d="M 0,0 C 0.353,1.756 1.588,2.134 3.143,2.014 4.693,-0.081 6.087,-2.225 5.34,-5.036 5.29,-6.057 5.24,-7.079 5.191,-8.1 3.461,-5.4 1.729,-2.7 0,0" /></g><g
           transform="translate(340.9355,140.0581)"
           id="g356"><path
             id="path358"
             style="fill:#293744;fill-opacity:1;fill-rule:evenodd;stroke:none"
             d="m 0,0 c 0.869,1.111 1.55,2.997 3.244,2.165 0.662,-0.326 0.49,-2.322 0.725,-3.551 2.095,-11.01 -6.844,-9.777 -12.954,-11.682 -6.619,-3.321 -13.424,-5.652 -20.99,-4.002 -4.413,1.147 -3.533,5.794 -5.393,8.625 -0.897,1.364 1.871,2.064 3.492,2.276 0.522,-0.972 1.322,-1.544 2.432,-1.337 9.449,1.757 18.851,3.739 28.173,6.087 0.678,0.17 1.06,0.753 1.271,1.419" /></g><g
           transform="translate(310.9609,122.9883)"
           id="g360"><path
             id="path362"
             style="fill:#111c24;fill-opacity:1;fill-rule:evenodd;stroke:none"
             d="M 0,0 C 6.996,1.333 13.992,2.667 20.99,4.001 22.51,1.964 29.672,8.435 26.974,0.034 19.491,-4.06 11.571,-6.077 3.003,-5.008 0.802,-4.692 -2.62,-5.106 -3.34,-3.903 -4.743,-1.558 -0.751,-1.751 0,0" /></g><g
           transform="translate(313.9639,117.98)"
           id="g364"><path
             id="path366"
             style="fill:#293744;fill-opacity:1;fill-rule:evenodd;stroke:none"
             d="M 0,0 C 7.99,1.68 15.98,3.361 23.971,5.042 26.214,4.396 29.178,8.968 30.249,5.36 31.192,2.182 27.08,1.453 24.354,0.931 15.634,-0.737 6.907,-2.375 -1.84,-3.891 c -1.513,-0.261 -3.44,-0.721 -4.336,1.264 -0.106,0.236 0.886,1.26 1.521,1.481 C -3.152,-0.624 -1.558,-0.365 0,0" /></g><g
           transform="translate(340.9355,140.0581)"
           id="g368"><path
             id="path370"
             style="fill:#3b5463;fill-opacity:1;fill-rule:evenodd;stroke:none"
             d="m 0,0 c 1.64,-2.076 -0.033,-2.634 -1.512,-2.959 -9.331,-2.051 -18.669,-4.074 -28.033,-5.968 -1.926,-0.389 -4.069,-0.278 -2.332,2.758 C -21.25,-4.113 -10.624,-2.057 0,0" /></g><g
           transform="translate(297.0918,209.9746)"
           id="g372"><path
             id="path374"
             style="fill:#915d28;fill-opacity:1;fill-rule:evenodd;stroke:none"
             d="m 0,0 c -0.731,2.35 -1.464,4.7 -2.196,7.05 0.673,0.679 1.345,1.358 2.018,2.037 4.358,3.388 9.641,2.753 14.646,3.487 11.238,1.647 22.681,2.29 33.446,6.425 5.046,0.148 9.949,2.783 15.117,0.879 0.636,-1.269 1.271,-2.538 1.906,-3.806 1.004,-2.73 2.008,-5.461 3.013,-8.194 C 64.135,-0.553 55.832,2.019 49.617,1.456 40.655,0.645 32.036,-0.849 23.569,-3.661 15.074,-6.482 6.508,-9.906 0,0" /></g><g
           transform="translate(192.1357,378.9902)"
           id="g376"><path
             id="path378"
             style="fill:#717a83;fill-opacity:1;fill-rule:evenodd;stroke:none"
             d="m 0,0 c 2.68,-7.634 -4.116,-12.033 -6.164,-18.053 -3.858,5.552 2.524,8.524 3.349,12.924 C -2.475,-3.308 -0.974,-1.704 0,0" /></g><g
           transform="translate(166.9951,201.9849)"
           id="g380"><path
             id="path382"
             style="fill:#5b564d;fill-opacity:1;fill-rule:evenodd;stroke:none"
             d="m 0,0 c -5.233,7.244 -1.125,14.958 -0.849,22.383 0.407,10.898 1.834,21.758 2.851,32.632 0.059,0.617 0.336,1.213 0.512,1.819 C 2.667,56.378 2.924,55.931 2.96,55.465 4.292,38.301 5.652,21.137 6.821,3.96 6.906,2.705 5.593,1.353 4.93,0.045 3.296,-1.007 1.658,-1.547 0,0" /></g><g
           transform="translate(174.9766,230.9678)"
           id="g384"><path
             id="path386"
             style="fill:#68655d;fill-opacity:1;fill-rule:evenodd;stroke:none"
             d="m 0,0 c 2.993,-9.194 2.807,-19.595 10.294,-27.114 0.302,-0.303 -0.019,-1.943 -0.365,-2.065 -3.3,-1.162 -6.653,-1.522 -9.929,0.181 7.652,-0.424 7.384,3.056 3.968,8.068 C -0.396,-14.527 -0.273,-7.279 0,0" /></g><g
           transform="translate(166.9951,201.9849)"
           id="g388"><path
             id="path390"
             style="fill:#68655d;fill-opacity:1;fill-rule:evenodd;stroke:none"
             d="M 0,0 C 1.644,0.015 3.287,0.029 4.93,0.044 5.275,-0.321 5.622,-0.687 5.968,-1.053 0.485,-3.503 -4.67,-0.361 -9.995,-0.12 -10.009,0.245 -10.023,0.61 -10.037,0.975 -6.691,0.65 -3.346,0.325 0,0" /></g><g
           transform="translate(456.9404,242.9492)"
           id="g392"><path
             id="path394"
             style="fill:#495157;fill-opacity:1;fill-rule:evenodd;stroke:none"
             d="m 0,0 c -5.986,-5.722 -14.173,-4.788 -21.33,-6.664 -15.486,-4.06 -31.192,-7.22 -46.695,-11.356 -8.481,-2.263 -18.823,-4.538 -26.011,4.809 C -61.231,-19.198 -31.299,-4.735 0,0" /></g><g
           transform="translate(345.0059,228.9731)"
           id="g396"><path
             id="path398"
             style="fill:#b19360;fill-opacity:1;fill-rule:evenodd;stroke:none"
             d="m 0,0 c -9.502,-6.913 -20.985,-5.882 -31.693,-7.257 -5.515,-0.708 -11.074,-0.788 -16.399,-2.655 5.195,6.118 12.887,3.495 19.31,5.2 C -19.431,-2.231 -9.617,-1.485 0,0" /></g><g
           transform="translate(324.9717,235.021)"
           id="g400"><path
             id="path402"
             style="fill:#716d60;fill-opacity:1;fill-rule:evenodd;stroke:none"
             d="M 0,0 C 11.64,5.093 24.667,3.634 36.449,7.487 45.967,10.6 51.204,5.277 56.945,-0.142 39.393,11.937 21.606,1.629 3.916,0.406 2.607,0.315 1.305,0.138 0,0" /></g><g
           transform="translate(440.9873,316.2471)"
           id="g404"><path
             id="path406"
             style="fill:#444744;fill-opacity:1;fill-rule:evenodd;stroke:none"
             d="M 0,0 C 0.067,10.859 8.36,10.097 14.302,10.199 20.532,10.307 18.924,3.813 18.8,0.19 18.49,-8.897 10.25,-5.928 5.395,-6.907 0.595,-7.875 0.29,-2.977 0,0" /></g><g
           transform="translate(420.8506,332.9678)"
           id="g408"><path
             id="path410"
             style="fill:#41403a;fill-opacity:1;fill-rule:evenodd;stroke:none"
             d="M 0,0 C 0.368,2.261 -0.66,4.94 1.87,5.562 4.93,6.314 8.187,6.261 11.359,6.557 11.468,3.813 11.875,1.031 11.532,-1.656 11.4,-2.688 9.589,-4.219 8.488,-4.267 6.11,-4.37 2.982,1.042 1.632,-5.459 -0.881,-4.03 0.616,-1.548 0,0" /></g><g
           transform="translate(442.4385,335.9272)"
           id="g412"><path
             id="path414"
             style="fill:#413f38;fill-opacity:1;fill-rule:evenodd;stroke:none"
             d="m 0,0 c 0.612,1.937 0.666,4.708 1.88,5.378 2.182,1.205 3.161,-1.586 4.391,-2.994 1.708,-1.952 2.903,-4.902 6.173,-4.002 1.161,0.32 2.657,1.895 2.789,3.038 0.479,4.094 -3.274,1.944 -4.915,3.009 -0.577,0.374 -0.843,1.226 -1.252,1.86 0.993,0.536 1.955,1.447 2.986,1.533 2.262,0.188 4.65,-0.497 5.208,-2.893 0.662,-2.848 1.373,-6.484 -1.881,-8.066 C 12.999,-4.295 9.928,-5.881 7.129,-3.21 5.688,-1.835 3.604,2.12 3.229,-3.865 3.201,-4.321 2.135,-4.711 1.552,-5.132 1.049,-3.468 0.546,-1.805 0,0" /></g><g
           transform="translate(415.916,325.9902)"
           id="g416"><path
             id="path418"
             style="fill:#41403c;fill-opacity:1;fill-rule:evenodd;stroke:none"
             d="m 0,0 c -1.857,0.398 -4.974,-1.142 -4.889,2.411 0.076,3.107 -1.863,7.052 1.802,9.099 1.768,0.986 5.734,1.332 6.398,0.373 C 5.283,9.03 3.589,5.537 2.979,2.315 0.79,3.084 -0.373,2.532 0.003,0.001 0.003,0.001 0,0 0,0" /></g><g
           transform="translate(387.0039,270.4697)"
           id="g420"><path
             id="path422"
             style="fill:#7c7872;fill-opacity:1;fill-rule:evenodd;stroke:none"
             d="m 0,0 c 2.4,-0.099 3.502,-1.445 2.539,-4.193 -0.49,-1.402 -0.806,-3.006 -1.71,-4.096 -2.842,-3.427 -4.392,-8.117 -9.167,-9.72 1.987,3.009 4.218,5.894 5.864,9.08 0.828,1.603 4.225,3.446 1.83,4.974 -1.789,1.142 -3.053,-2.235 -4.163,-4.012 -1.11,-1.781 -2.708,-4.94 -4.354,-3.775 -2.285,1.616 0.769,3.821 1.89,5.209 C -5.318,-4.115 -5.43,0.745 0,0" /></g><g
           transform="translate(440.2471,335.7939)"
           id="g424"><path
             id="path426"
             style="fill:#33322c;fill-opacity:1;fill-rule:evenodd;stroke:none"
             d="m 0,0 c -0.907,-1.955 1.162,-5.347 -1.898,-5.38 -2.538,-0.028 -1.408,3.185 -1.349,4.903 0.063,1.86 -1.264,5.213 1.659,5.219 C 1.096,4.747 -1.005,1.444 0,0" /></g><g
           transform="translate(297.7568,240.1797)"
           id="g428"><path
             id="path430"
             style="fill:#7c7872;fill-opacity:1;fill-rule:evenodd;stroke:none"
             d="m 0,0 c -1.698,-1.118 -2.637,-2.183 -3.155,-2.007 -4.091,1.389 -6.267,5.049 -8.975,8.064 -0.017,0.02 0.989,1.122 1.083,1.06 C -7.596,4.84 -5.58,0.667 0,0" /></g><g
           transform="translate(452.9785,318.5166)"
           id="g432"><path
             id="path434"
             style="fill:#716d60;fill-opacity:1;fill-rule:evenodd;stroke:none"
             d="M 0,0 C 0.036,1.985 -0.062,4.059 2.446,4.134 3.18,4.156 3.952,2.881 4.706,2.2 1.807,0.895 5.783,-4.15 1.525,-4.227 -1.155,-4.274 0.528,-1.353 0,0" /></g><g
           transform="translate(449.0771,317.0776)"
           id="g436"><path
             id="path438"
             style="fill:#6d6f6c;fill-opacity:1;fill-rule:evenodd;stroke:none"
             d="M 0,0 C -0.315,-1.954 0.547,-4.531 -2.054,-4.573 -4.646,-4.615 -4.07,-2.08 -4.1,-0.389 -4.131,1.399 -4.232,3.719 -1.701,3.629 0.897,3.537 -0.648,1.028 0,0" /></g></g></g></g></svg>